<?xml version="1.0" encoding="UTF-8" standalone="no"?>
<!-- Created with Inkscape (http://www.inkscape.org/) -->

<svg
   xmlns:dc="http://purl.org/dc/elements/1.1/"
   xmlns:cc="http://creativecommons.org/ns#"
   xmlns:rdf="http://www.w3.org/1999/02/22-rdf-syntax-ns#"
   xmlns:svg="http://www.w3.org/2000/svg"
   xmlns="http://www.w3.org/2000/svg"
   xmlns:sodipodi="http://sodipodi.sourceforge.net/DTD/sodipodi-0.dtd"
   xmlns:inkscape="http://www.inkscape.org/namespaces/inkscape"
   width="128.32095mm"
   height="46.768295mm"
   viewBox="0 0 454.68054 165.71443"
   id="svg8645"
   version="1.1"
   inkscape:version="0.91 r13725"
   sodipodi:docname="comic frame header.svg">
  <defs
     id="defs8647" />
  <sodipodi:namedview
     id="base"
     pagecolor="#ffffff"
     bordercolor="#666666"
     borderopacity="1.0"
     inkscape:pageopacity="0.0"
     inkscape:pageshadow="2"
     inkscape:zoom="1.1962025"
     inkscape:cx="265.31153"
     inkscape:cy="34.572227"
     inkscape:document-units="px"
     inkscape:current-layer="layer1"
     showgrid="false"
     fit-margin-top="0"
     fit-margin-left="0"
     fit-margin-right="0"
     fit-margin-bottom="0"
     inkscape:window-width="1366"
     inkscape:window-height="705"
     inkscape:window-x="-8"
     inkscape:window-y="-8"
     inkscape:window-maximized="1" />
  <metadata
     id="metadata8650">
    <rdf:RDF>
      <cc:Work
         rdf:about="">
        <dc:format>image/svg+xml</dc:format>
        <dc:type
           rdf:resource="http://purl.org/dc/dcmitype/StillImage" />
        <dc:title></dc:title>
      </cc:Work>
    </rdf:RDF>
  </metadata>
  <g
     inkscape:label="Layer 1"
     inkscape:groupmode="layer"
     id="layer1"
     transform="translate(-177.54562,-429.79143)">
    <path
       style="fill:#000000"
       d="m 402.44531,429.79297 c -6.98448,-0.0802 -13.53127,2.97404 -20.17187,9.18555 -2.71396,2.53859 -5.09133,4.14595 -5.28321,3.57031 -0.23708,-0.71128 -1.43458,-0.73548 -3.74023,-0.0742 -1.98863,0.57033 -38.20344,1.25299 -87.5,1.65039 -46.25861,0.3729 -85.11992,0.7239 -86.35742,0.7793 l -2.25,0.10156 0.11523,20.5 c 0.0625,11.275 0.40005,28.50158 0.75,38.28125 0.3944,11.02217 0.25465,18.83302 -0.36523,20.55078 -0.97954,2.71444 -11.87092,18.47685 -15.83399,22.91406 -2.02261,2.2646 -1.78663,4.06459 0.35938,2.73828 0.63691,-0.39363 5.03043,-5.95262 9.76367,-12.35156 8.52184,-11.5208 12.21094,-16.03573 12.21094,-14.94726 0,0.30956 -0.67889,2.4888 -1.50977,4.84375 -1.88178,5.33353 -1.15495,6.43211 1.11133,1.67968 1.16152,-2.43574 2.18701,-3.37891 3.29297,-3.02929 1.38239,0.43701 1.39836,0.36143 0.11719,-0.54297 -1.27956,-0.90325 -1.06901,-1.82857 1.5,-6.5918 3.72759,-6.91138 9.46155,-14.90563 10.17773,-14.18945 0.29606,0.29606 -0.38863,1.71943 -1.52344,3.16211 -1.1348,1.44267 -2.365,4.62608 -2.73242,7.07617 -0.58372,3.89253 -0.86626,4.29386 -2.24219,3.17969 -1.21801,-0.9863 -1.4051,-0.99033 -0.82421,-0.0234 0.41304,0.6875 0.27582,1.25 -0.30665,1.25 -0.58245,0 -1.06054,0.50375 -1.06054,1.12109 0,0.77551 0.46364,0.73901 1.5,-0.12109 1.2613,-1.04679 1.50272,-0.86799 1.51562,1.12695 0.0267,4.13565 1.4989,5.25462 2.82813,2.15039 1.1013,-2.57195 1.07743,-2.6348 -0.32617,-0.83789 -1.83548,2.34981 -1.98961,0.80555 -0.4668,-4.67773 1.16216,-4.18465 3.95315,-6.35935 5.79687,-4.51563 0.82731,0.82729 1.15235,0.83822 1.15235,0.0371 0,-0.61416 -0.50982,-1.28648 -1.13281,-1.49414 -0.68863,-0.22954 -0.85617,-1.2478 -0.42774,-2.59765 0.39477,-1.2438 1.22289,-1.9626 1.88281,-1.63282 0.6479,0.32377 0.39024,-0.0568 -0.57226,-0.8457 -2.33399,-1.91307 -2.2125,-2.39266 0.75,-2.95898 2.3777,-0.45452 2.49905,-0.25092 2.46875,4.13476 -0.0175,2.53623 -0.69249,5.48316 -1.5,6.55078 -0.80751,1.06762 -1.4531,2.41762 -1.4336,3 0.0195,0.58238 0.67883,-0.0644 1.46485,-1.43945 1.39011,-2.43174 1.43368,-2.36349 1.60937,2.5 0.48129,13.31981 0.45828,18.2431 -0.0996,21 -0.33374,1.65 -0.3321,4.35 0.004,6 l 0.61133,3 0.85351,-3.5 c 0.4688,-1.925 0.77163,-4.72217 0.67383,-6.21484 -0.0978,-1.49267 0.2918,-4.64267 0.86524,-7 1.20506,-4.95389 2.07929,-10.16558 2.33007,-13.89454 0.0965,-1.43514 0.84502,-3.43217 1.66407,-4.4375 1.35561,-1.66394 1.32117,-1.76609 -0.38672,-1.125 -1.77926,0.66789 -1.79217,0.57632 -0.25,-1.77734 1.85274,-2.82764 2.08244,-3.95153 0.625,-3.05078 -0.55,0.33992 -1,-0.0578 -1,-0.88281 0,-0.825 0.45,-1.77727 1,-2.11719 0.55,-0.33992 0.99237,-1.15551 0.98437,-1.81055 -0.01,-0.73893 -0.36234,-0.64014 -0.93164,0.25977 -1.05887,1.67377 -0.73541,-4.14889 0.41407,-7.44922 0.69656,-2 0.69663,-2 -1.01954,0 -1.71617,2 -1.71473,2 -0.95117,0 0.41996,-1.1 0.84504,-2.76978 0.94531,-3.70898 0.10027,-0.93924 1.39279,-2.65985 2.87305,-3.82422 2.38208,-1.87374 2.76302,-1.93192 3.3125,-0.5 0.34117,0.88982 0.33905,1.89924 -0.004,2.24218 -0.34293,0.34295 -0.62304,-0.20065 -0.62304,-1.20898 0,-1.00833 -0.24234,-1.59165 -0.53906,-1.29492 -0.29673,0.29673 -0.0544,3.58004 0.53906,7.29492 0.59347,3.71488 0.90612,6.92785 0.69336,7.14062 -0.21277,0.21276 -1.58205,-0.55158 -3.04102,-1.69921 -1.45896,-1.14762 -2.65234,-1.61682 -2.65234,-1.04102 0,1.39635 5.53893,4.21155 6.50976,3.30859 0.80887,-0.75233 0.23789,2.93663 -0.97461,6.29102 -0.51625,1.42824 -0.44612,1.61147 0.2461,0.64258 1.19254,-1.66919 2.47938,0.0159 1.65429,2.16601 -0.31428,0.819 -0.0914,1.78534 0.4961,2.14844 0.58749,0.36309 1.06836,1.11016 1.06836,1.66016 0,0.55 -0.50756,0.68675 -1.12891,0.30273 -0.6919,-0.42762 -0.93412,-0.16136 -0.625,0.68945 0.2776,0.76406 0.89766,1.31436 1.37891,1.22266 0.48125,-0.0917 0.95468,1.03334 1.05078,2.5 0.42713,6.5211 1.10636,11.00443 1.84961,12.20703 0.57628,0.93245 0.33674,1.12171 -0.8457,0.66797 -1.40051,-0.53743 -1.47146,-0.34819 -0.46485,1.26367 0.65204,1.04407 1.43392,1.74744 1.73633,1.5625 0.30242,-0.18494 0.54883,3.10645 0.54883,7.31446 0,4.20802 0.45,7.98263 1,8.38671 0.63696,0.46796 0.58591,0.74 -0.14258,0.75 -0.80954,0.0108 -0.89167,1.13978 -0.2793,3.86524 0.47583,2.11775 0.99132,6.39063 1.14453,9.49414 0.15321,3.10352 0.61485,5.64444 1.02735,5.64844 0.4125,0.004 0.75,0.64055 0.75,1.41406 0,0.90597 -0.69844,1.22375 -1.96485,0.89258 -2.32824,-0.60885 -15.63698,3.24863 -16.60351,4.8125 -0.75245,1.21749 -9.42898,6.88867 -10.53906,6.88867 -1.18914,0 -0.39509,-2.78801 1.33984,-4.70508 1.5486,-1.7112 1.39751,-1.78494 -3.05273,-1.50976 -3.56824,0.22064 -4.28245,0.0427 -3.00977,-0.75196 0.91811,-0.57325 2.85468,-1.14171 4.30469,-1.26172 2.46442,-0.20396 2.51992,-0.30916 0.83203,-1.6289 -1.93064,-1.50953 -1.6897,-1.4728 3.44336,0.54297 1.42412,0.55926 1.53389,0.41959 0.58789,-0.75 -0.96486,-1.19292 -0.54788,-1.48123 2.44922,-1.70118 4.76502,-0.34971 7.83434,-2.47656 8.48437,-5.87695 0.56788,-2.9707 -0.0121,-20.39164 -1.15234,-34.60742 -0.38602,-4.8125 -0.40772,-8.75 -0.0488,-8.75 0.3589,0 0.43935,-1.11969 0.17773,-2.48828 -0.8389,-4.38849 -2.49438,-1.43927 -2.01171,3.58398 0.25559,2.65999 0.0881,4.60412 -0.3711,4.32032 -0.4592,-0.28382 -0.56439,0.83428 -0.23437,2.48437 0.33001,1.6501 0.17035,4.25908 -0.35547,5.79883 -0.52582,1.53974 -0.61711,4.04047 -0.20117,5.55664 0.41588,1.51617 0.39692,2.53359 -0.043,2.26172 -0.43986,-0.27186 -0.61571,2.18231 -0.39063,5.45312 l 0.40821,5.94727 -3.77344,-1.5918 c -3.15137,-1.32872 -6.29393,-1.4842 -19.0293,-0.94531 -15.60333,0.66025 -23.03834,-0.19478 -26.32422,-3.02344 -0.86831,-0.74749 -2.21831,-1.34252 -3,-1.32422 -0.92809,0.0217 -0.60642,0.71198 0.92774,1.99024 3.51854,2.93163 11.62582,4.97656 19.73437,4.97656 l 7.22266,0 -2.87695,6.84375 c -3.7359,8.89172 -4.78735,17.1982 -2.59961,20.53711 4.65458,7.10379 21.38812,5.21785 29.07617,-3.27734 1.04707,-1.15702 2.17079,-2.10348 2.49805,-2.10352 0.32722,-3e-5 0.52003,2.47882 0.42773,5.50976 -0.20481,6.72678 1.47737,8.97679 6.0293,8.06641 1.66872,-0.33375 3.95718,-1.27078 5.08593,-2.08398 1.12875,-0.81321 3.15822,-2.27003 4.50977,-3.23633 1.35156,-0.96629 2.13254,-1.2259 1.73437,-0.57617 -0.39817,0.64973 0.0406,2.78723 0.97657,4.75 l 0.002,0 c 0.93598,1.96277 2.01665,3.57031 2.40234,3.57031 0.38568,0 1.02033,-2.12686 1.41016,-4.72656 0.89176,-5.94671 3.71645,-11.54433 7.54883,-14.95899 1.63347,-1.45544 2.96875,-3.62134 2.96875,-4.81445 0,-1.19311 -2.19643,-8.33407 -4.88086,-15.86719 -4.72424,-13.2573 -4.85421,-13.92442 -4.09766,-20.8164 1.41082,-12.85233 -1.61914,-30.01487 -6.29297,-35.64649 -0.90631,-1.09204 -0.39448,-1.19177 2.83203,-0.55469 4.02151,0.79409 6.13998,0.78715 14.93946,-0.0488 7.49158,-0.71169 21.15508,-0.7015 28.60547,0.0215 3.79886,0.36864 9.66694,0.12535 13.81445,-0.57422 7.92539,-1.33679 10.83231,-0.74149 3.91992,0.80274 -2.70613,0.60454 -3.39866,0.99185 -1.83984,1.03125 1.375,0.0348 4.11187,-0.51121 6.08008,-1.21485 1.98113,-0.70825 4.43627,-0.94417 5.5,-0.52734 1.05679,0.41412 3.04492,0.77839 4.41992,0.80859 2.03524,0.0448 2.22114,-0.14424 1,-1.01172 -1.14834,-0.81576 -0.83546,-0.91875 1.33398,-0.44336 1.99651,0.43749 2.62453,0.28092 2.125,-0.52734 -0.49317,-0.79796 -0.0407,-0.93388 1.48633,-0.44922 2.90567,0.92223 11.2451,-1.54777 10.63086,-3.14844 -0.44652,-1.16361 5.19075,-3.69441 7.05664,-3.16796 0.4768,0.13452 2.44219,-0.6184 4.36719,-1.67383 1.925,-1.05542 4.85,-2.43695 6.5,-3.07032 1.65,-0.63337 3.88677,-1.52454 4.96875,-1.97851 1.75682,-0.73713 1.8103,-0.65606 0.5,0.75976 -0.80698,0.87196 -1.80625,1.38255 -2.21875,1.13282 -0.4125,-0.24973 -0.75,-0.0748 -0.75,0.39062 0,0.46542 -0.94978,0.91836 -2.11133,1.00586 -1.16154,0.0875 -2.84904,0.80621 -3.75,1.5957 -1.55053,1.3587 -5.45222,2.95856 -7.63867,3.13282 -2.4578,0.19589 -5.36372,1.74403 -5.90039,3.14258 -0.45756,1.19237 -0.0935,1.38011 1.6582,0.85742 1.23404,-0.36824 3.23243,-1.29297 4.44141,-2.05469 1.20898,-0.76172 5.24233,-2.53123 8.96289,-3.93164 3.72055,-1.40041 7.11061,-3.09167 7.53515,-3.75977 0.59249,-0.93234 0.77531,-0.91614 0.78711,0.0703 0.0119,0.99943 0.48757,1.03298 2.13672,0.15039 1.16637,-0.62423 1.85117,-0.69946 1.52149,-0.16602 -0.32969,0.53344 -3.3247,1.9892 -6.6543,3.23438 -3.32959,1.24519 -5.87483,2.44157 -5.6582,2.6582 0.21663,0.21663 1.57997,-0.0576 3.03125,-0.60938 2.17273,-0.82607 2.63867,-0.7209 2.63867,0.60157 0,1.27705 0.71704,1.49067 3.5,1.03906 2.34969,-0.3813 3.50532,-0.17783 3.51562,0.61914 0.009,0.70793 0.4063,0.58201 0.98438,-0.3125 0.53316,-0.825 0.9832,-1.05 1,-0.5 0.0168,0.55 0.43235,0.3643 0.92383,-0.41211 0.72037,-1.13798 1.3491,-0.88888 3.23632,1.2832 l 2.33985,2.69336 23.76367,0.34766 23.76172,0.3457 2.48828,-2.95508 c 1.36815,-1.62596 2.51588,-3.93555 2.55078,-5.13086 0.061,-2.09131 0.0995,-2.08219 1.02149,0.22266 0.52695,1.31735 1.18627,2.16724 1.46484,1.88867 0.27857,-0.27857 0.003,-1.80575 -0.61328,-3.39453 -0.61598,-1.58878 -1.28258,-4.01367 -1.48047,-5.38867 -0.33239,-2.30946 -0.25864,-2.27776 0.96289,0.42187 0.72727,1.6073 2.05496,3.03057 2.95117,3.16211 1.91202,0.28062 1.9101,0.28608 0.67188,-2.9707 -0.87661,-2.30566 -0.77529,-2.45112 1.19922,-1.7207 1.18549,0.43854 2.36388,1.43065 2.61914,2.20312 0.37747,1.14229 0.12315,1.12426 -1.36133,-0.0957 -1.62244,-1.33333 -1.77051,-1.33333 -1.33008,0 0.70218,2.12571 3.59638,2.44072 3.99609,0.43555 0.21136,-1.06027 1.59832,0.57423 3.77149,4.44336 1.89059,3.366 3.85166,6.12109 4.35742,6.12109 0.50576,0 0.66034,-0.675 0.34375,-1.5 -0.31658,-0.825 -0.14015,-1.5 0.39258,-1.5 0.53274,0 0.96875,0.40143 0.96875,0.89258 0,0.49116 0.73979,1.17698 1.64258,1.52344 1.38263,0.53056 1.43892,0.38515 0.35742,-0.91797 -0.70617,-0.85089 -0.95889,-1.87315 -0.56055,-2.27149 0.39834,-0.39835 1.30075,0.0618 2.00391,1.02344 0.70317,0.96164 1.61985,1.75 2.03906,1.75 0.41921,0 0.20227,-0.675 -0.48242,-1.5 -1.69594,-2.04349 -0.36764,-1.88673 2.8457,0.33594 3.64968,2.5245 5.1543,3.3578 5.1543,2.85547 0,-0.87737 -8.01746,-5.69141 -9.47852,-5.69141 -0.83679,0 -1.52148,-0.45 -1.52148,-1 0,-0.55 -0.43601,-1 -0.96875,-1 -0.53272,0 -0.74671,0.57529 -0.47656,1.2793 0.30402,0.79227 -0.41221,1.35501 -1.88086,1.47656 -1.66397,0.13771 -2.7107,-0.54268 -3.50196,-2.2793 -1.37368,-3.0149 0.28554,-3.36251 1.875,-0.39258 0.61391,1.1471 1.34024,1.86094 1.61524,1.58594 0.275,-0.275 -0.0132,-1.45861 -0.64063,-2.63086 -1.01808,-1.90232 -0.94525,-2.02126 0.66992,-1.11328 1.67144,0.93961 12.19196,4.05403 18.49414,5.47461 17.88294,4.03098 66.15968,4.6275 85.21485,1.05273 2.94915,-0.55326 3.38749,-0.35112 3.79101,1.75977 0.34024,1.77984 -0.008,2.42297 -1.36718,2.52539 -1.00275,0.0755 -1.82422,-0.50996 -1.82422,-1.30078 0,-0.79082 -0.49662,-1.4375 -1.10547,-1.4375 -0.60888,0 -0.84979,0.675 -0.5332,1.5 0.31658,0.825 0.14015,1.5 -0.39258,1.5 -0.53274,0 -0.96875,-0.44017 -0.96875,-0.97656 0,-0.59842 -0.87008,-0.64451 -2.25196,-0.11914 -1.23856,0.47091 -4.16357,0.7744 -6.5,0.67382 -2.33641,-0.10057 -4.24804,0.23379 -4.24804,0.74219 0,0.5084 -0.6839,0.3553 -1.52149,-0.33984 -1.29235,-1.07255 -1.41966,-0.97816 -0.83203,0.62695 0.66755,1.82339 0.61348,1.82128 -1.51953,-0.0527 -1.87395,-1.6464 -2.11303,-1.68467 -1.5625,-0.25 0.76297,1.98825 -0.58837,2.22873 -2.50976,0.44531 -1.07737,-1 -1.20715,-1 -0.64258,0 0.39744,0.70396 0.17074,1.25 -0.51953,1.25 -0.67413,0 -0.88864,0.3375 -0.47657,0.75 1.26443,1.26575 11.6243,1.13591 10.91407,-0.13672 -0.34208,-0.61296 -0.0161,-0.55078 0.72461,0.13672 1.81465,1.68435 6.32442,1.68435 5.3125,0 -0.54752,-0.91134 -0.31002,-0.89358 0.87695,0.0684 1.25245,1.01502 2.11905,1.05749 3.75195,0.18359 1.16742,-0.62473 3.33226,-0.87362 4.8125,-0.55273 1.48024,0.3209 3.70488,0.77543 4.94336,1.00976 3.65848,0.69222 13.83674,9.15358 15.67774,13.03321 0.93575,1.97195 2.39143,5.90759 3.23437,8.74609 1.31002,4.41133 1.68433,4.89175 2.57031,3.30859 0.75716,-1.35297 0.57396,-3.31624 -0.67773,-7.28711 -0.94244,-2.98973 -1.46359,-5.68678 -1.1582,-5.99218 0.3054,-0.30539 0.77719,0.0717 1.04882,0.83789 2.05785,5.80488 2.6775,7.10179 3.16407,6.61523 0.30556,-0.30557 -0.3814,-2.67499 -1.52735,-5.26562 -2.08697,-4.71794 -2.83134,-8.18358 -1.20703,-5.6211 0.46557,0.73448 1.24783,1.4095 1.73633,1.5 0.48855,0.0905 0.75212,1.21817 0.58594,2.50586 -0.18397,1.4255 0.10464,2.09084 0.73828,1.69922 0.61606,-0.38075 0.8075,-0.0351 0.46875,0.84766 -0.31472,0.82016 -0.0988,2.30683 0.48047,3.30273 0.80901,1.39082 1.06451,1.46269 1.09961,0.31055 0.0407,-1.33333 0.152,-1.33333 1.01367,0 0.86167,1.33333 0.97859,1.33333 1.05469,0 0.0592,-1.03764 0.37879,-0.88352 1.03515,0.5 0.73359,1.54631 0.83538,1.20605 0.44727,-1.5 -0.39451,-2.75072 -0.27779,-3.12236 0.54297,-1.73047 0.57437,0.97407 1.49797,1.49054 2.05468,1.14649 0.5567,-0.34407 0.0981,1.16663 -1.01953,3.35742 -1.11766,2.19079 -2.2361,5.05126 -2.48633,6.35547 -0.25022,1.3042 -0.93339,4.39609 -1.51757,6.87109 -0.58418,2.475 -1.07254,9.02133 -1.08594,14.54883 -0.0134,5.5275 -0.4484,10.4775 -0.9668,11 -1.66545,1.67865 0.20241,19.6731 2.38867,23.00976 l 1.92578,2.93946 0.88672,-3.41797 c 0.48727,-1.88025 0.67435,-4.22699 0.41602,-5.21485 -0.3088,-1.18086 0.22464,-2.01669 1.55664,-2.43945 1.8021,-0.57196 1.96444,-1.23762 1.4707,-6.02148 -0.3053,-2.95804 -0.19517,-5.5996 0.24414,-5.8711 1.43832,-0.88894 2.03292,6.75997 1.39844,17.97852 -0.75872,13.41543 -0.51046,13.7867 8.58594,12.83594 6.57141,-0.68685 9.06836,-2.199 9.06836,-5.49219 0,-1.1 0.61344,-2.61148 1.36133,-3.35938 0.92789,-0.92786 1.20807,-2.92625 0.88476,-6.29101 -0.45945,-4.78166 -0.37895,-4.963 2.64063,-6.01563 1.71271,-0.59705 3.14765,-0.77256 3.18945,-0.38867 0.0418,0.38389 0.72345,-0.87578 1.51367,-2.80078 l 1.43555,-3.5 -0.45313,3.08203 c -0.31584,2.14271 -0.045,3.08395 0.89063,3.08399 0.75778,-10e-6 1.14316,-0.69281 0.88086,-1.58399 -0.2563,-0.87083 0.44204,-0.007 1.55273,1.91797 l 2.01953,3.5 0.0918,-4.5 c 0.2404,-11.75932 -0.13812,-58.40229 -0.47851,-58.95313 -0.21209,-0.34312 -0.49097,-14.50601 -0.6211,-31.47265 -0.13013,-16.96664 -0.42776,-31.84286 -0.66016,-33.0586 -0.41996,-2.19694 -0.59005,-2.21597 -28.08398,-2.90039 -15.21445,-0.37878 -51.51406,-0.58149 -80.66406,-0.45117 -29.15,0.13032 -61.55,0.26021 -72,0.28711 l -19,0.0488 -8.31836,-5.69336 c -7.21262,-4.9365 -13.71613,-7.44881 -19.87891,-7.51953 z m -1.16015,3.87695 c 1.81502,-0.008 3.60316,0.23134 5.37695,0.71094 3.91267,1.0579 15.81202,7.55594 24.29101,13.26562 2.3706,1.59634 4.70276,2.65926 5.18165,2.36329 0.47889,-0.29598 1.19577,-0.0111 1.59375,0.63281 0.4824,0.78054 0.28674,0.90262 -0.58594,0.36328 -0.89222,-0.55142 -1.06779,-0.42127 -0.55274,0.41211 0.41561,0.67251 1.44777,0.9579 2.29493,0.63281 1.33528,-0.51239 1.35663,-0.36355 0.15039,1.12305 -0.76529,0.94316 -0.93581,1.44366 -0.37891,1.11133 0.5569,-0.33232 2.1319,0.0142 3.5,0.77148 1.3681,0.75726 2.06902,1.39261 1.55859,1.41211 -1.36561,0.0521 12.968,9.75837 15.64454,10.59375 1.25567,0.39192 3.17097,1.32724 4.25585,2.07812 1.08487,0.75091 2.79852,1.36524 3.8086,1.36524 1.01008,0 1.55485,0.45527 1.21094,1.01172 -0.34747,0.56223 0.73749,1.28422 2.4414,1.625 1.68646,0.3373 3.06641,1.00703 3.06641,1.48828 0,0.48125 1.125,0.875 2.5,0.875 1.375,0 2.5,0.47995 2.5,1.06641 0,0.67498 1.74314,0.88418 4.75,0.57031 2.6125,-0.2727 5.0875,-0.52771 5.5,-0.56641 0.4125,-0.0388 0.75,-0.47805 0.75,-0.97656 0,-0.49851 -0.9752,-0.65176 -2.16797,-0.33984 -1.77636,0.46453 -2.04498,0.23984 -1.47852,-1.23633 0.60959,-1.58856 0.49348,-1.63667 -0.98437,-0.41016 -1.75202,1.45404 -2.22023,1.37854 -3.86914,-0.625 -0.55,-0.66828 -3.80142,-1.78415 -7.22656,-2.48047 -3.42513,-0.69633 -6.01405,-1.61305 -5.75196,-2.03711 0.26209,-0.42407 -2.55953,-1.70891 -6.27148,-2.85351 -6.99416,-2.1567 -17.86007,-7.83524 -16.875,-8.82031 0.30909,-0.30911 1.67985,0.17002 3.04492,1.06445 3.40092,2.22837 17.60496,7.8029 18.83594,7.39258 0.54922,-0.18308 -2.32167,-1.66426 -6.37891,-3.29102 l -7.37695,-2.95703 6,-0.31836 c 8.10554,-0.42771 14.74881,0.59597 13.82812,2.13086 -0.39123,0.6522 0.13573,0.5125 1.17188,-0.3125 1.03615,-0.825 1.56052,-0.9595 1.16406,-0.29883 -0.47965,0.79931 0.61629,1.60175 3.27539,2.39844 2.19786,0.65849 3.7582,1.58049 3.46875,2.04883 -0.28945,0.46833 0.41473,0.85156 1.56445,0.85156 1.14972,0 2.33333,0.63284 2.63086,1.4082 0.29754,0.77537 1.65207,1.68854 3.00977,2.0293 1.35769,0.34076 2.19909,1.05792 1.86914,1.5918 -0.32995,0.53387 -0.0973,0.9707 0.51758,0.9707 0.61492,0 0.79223,0.52647 0.39453,1.16992 -0.49057,0.79376 -0.17008,0.95653 0.99414,0.50977 0.94584,-0.36295 1.46067,-0.24544 1.14844,0.25976 -0.31156,0.5041 0.31862,1.19629 1.39843,1.53907 1.07986,0.34273 2.25212,1.53317 2.60547,2.64648 0.35336,1.11332 0.87968,1.78831 1.16993,1.49805 0.29026,-0.29026 1.13261,0.0125 1.87304,0.67382 2.46441,2.20105 3.92164,3.32595 5.92774,4.57422 1.68438,1.04809 1.22477,1.14867 -3.01172,0.65821 -3.66826,-0.42468 -4.5533,-0.30361 -3.32227,0.45507 0.92287,0.56875 7.47134,1.54793 14.55274,2.17774 9.94632,0.88462 14.797,0.86798 21.32226,-0.0781 4.64573,-0.67359 9.21408,-1.28994 10.15039,-1.36914 0.93631,-0.0792 1.50028,-0.34542 1.25391,-0.59179 -0.73267,-0.73267 7.66476,-4.1681 8.66992,-3.54688 0.50794,0.31392 0.79956,0.0741 0.64844,-0.53515 -0.15113,-0.60931 1.96644,-2.7821 4.70703,-4.82618 4.95294,-3.69417 4.97045,-3.6968 2.8418,-0.71484 -3.40587,4.77117 -8.08686,8.80378 -9.56055,8.23828 -0.86544,-0.3321 -1.39153,0.25437 -1.45703,1.62109 -0.0564,1.17707 0.10279,1.61211 0.35351,0.9668 0.25071,-0.6453 1.54394,-0.97734 2.87305,-0.73633 1.84525,0.33452 2.27776,0.0803 1.83399,-1.07617 -0.65311,-1.70195 1.1571,-2.09288 2.16211,-0.4668 0.7726,1.2501 3.48905,-0.66073 3.43945,-2.41992 -0.0175,-0.62016 -0.62522,-0.34653 -1.34961,0.60742 -0.72439,0.95395 -1.6225,1.42826 -1.9961,1.05469 -0.82243,-0.82242 11.42392,-13.37837 12.4375,-12.75195 0.39254,0.2426 0.65158,-0.32267 0.57618,-1.25586 -0.0754,-0.9332 1.06542,-2.28639 2.5332,-3.00586 3.58025,-1.75495 7.3758,-0.02 8.78125,4.01172 1.30892,3.75464 1.33405,5.70162 0.0488,3.71289 -1.19477,-1.84876 -1.21562,-0.63986 -0.0762,4.26758 0.73808,3.17881 0.5872,3.9225 -0.95899,4.75 -2.6355,1.4105 -2.64558,1.39873 -2.55078,-3.26758 0.0749,-3.6865 -0.2135,-4.29319 -2.17969,-4.57227 -1.47396,-0.20922 -4.0447,1.09319 -7.34961,3.72461 -7.97593,6.35053 -14.86263,9.24773 -25.20312,10.60157 -16.95439,2.21978 -49.69446,1.71585 -65.18164,-1.00391 -1.1,-0.19318 -2.81364,-0.38488 -3.8086,-0.42578 -0.99496,-0.0409 -1.55626,-0.48371 -1.24804,-0.98242 0.30822,-0.49871 -0.32847,-0.67453 -1.41406,-0.39063 -2.18257,0.57075 -22.07627,-3.85284 -20.17579,-4.48633 0.65374,-0.21791 2.59603,0.0936 4.31641,0.69336 1.72039,0.59973 3.85005,1.0496 4.73047,1 0.88043,-0.0496 0.12155,-0.5159 -1.68555,-1.03711 -1.8071,-0.5212 -3.02239,-1.37554 -2.69922,-1.89843 0.32317,-0.5229 -0.091,-0.68994 -0.92187,-0.3711 -1.52847,0.58652 -4.77162,-0.27554 -14.39063,-3.82617 -4.61624,-1.70398 -5.13093,-2.15859 -4,-3.52734 1.1519,-1.39413 1.06534,-1.42537 -0.75976,-0.28907 -1.78007,1.10825 -3.06899,0.81046 -9.59571,-2.20507 -4.14711,-1.91608 -9.48463,-5.23189 -11.86132,-7.36915 -4.74533,-4.26724 -9.98633,-11.83705 -9.98633,-14.42578 0,-2.26914 -3.19204,-4.95898 -5.88477,-4.95898 -1.67715,0 -2.71798,1.10726 -4.21093,4.48242 -1.0906,2.46548 -1.97866,4.82798 -1.97266,5.25 0.0199,1.46008 -11.4568,12.45846 -17.66797,16.93164 l -6.23633,4.49024 -3.26367,-2.16016 -3.26367,-2.16016 2.85937,2.45704 c 1.8198,1.56405 2.45567,2.70449 1.75,3.14062 -0.60961,0.37676 -1.62869,0.3651 -2.26367,-0.0273 -0.69901,-0.43202 -0.88434,-0.27596 -0.46875,0.39648 0.72381,1.17114 -4.26778,3.70438 -17.20703,8.73047 -6.43171,2.49831 -7.59729,2.68285 -9.5,1.49805 -1.89574,-1.18047 -2.01455,-1.16399 -0.94336,0.13281 1.04803,1.26875 0.17915,1.72729 -6,3.17383 -3.97402,0.93031 -11.05156,2.38206 -15.72656,3.22461 -12.50658,2.25401 -36.83194,2.74542 -45.5,0.91992 -3.85,-0.81081 -7.61953,-1.24348 -8.37696,-0.96094 -0.75738,0.28253 -1.99548,-0.28186 -2.75195,-1.25391 -1.28479,-1.65094 -1.33087,-1.63386 -0.70312,0.23438 0.64592,1.92231 0.59292,1.9302 -1.33008,0.24609 -1.10039,-0.9637 -2.3001,-1.44989 -2.66797,-1.08203 -0.36787,0.36787 -0.66992,0.14358 -0.66992,-0.49804 0,-0.64167 -0.675,-1.16602 -1.5,-1.16602 -0.825,0 -1.5,-0.43601 -1.5,-0.96875 0,-0.53273 0.7875,-0.71587 1.75,-0.40625 1.42674,0.45896 1.48282,0.37355 0.29883,-0.46484 -1.78706,-1.26543 -3.03773,-0.59578 -3.07813,1.64843 -0.0271,1.50951 -0.14403,1.49551 -1.08984,-0.13086 -0.81273,-1.39754 -0.65489,-2.271 0.68359,-3.75 0.95971,-1.06046 1.33013,-1.92773 0.82227,-1.92773 -0.50785,0 -1.73512,1.2375 -2.72852,2.75 -1.53927,2.34361 -1.73891,2.42795 -1.3457,0.57422 0.321,-1.51336 0.0596,-2.02137 -0.86133,-1.66797 -0.72805,0.27936 -1.09662,1.2588 -0.81836,2.17578 0.27826,0.91698 -0.18384,0.54297 -1.02734,-0.83203 -0.84349,-1.37497 -1.55082,-2.0138 -1.57032,-1.41797 -0.0588,1.7967 -3.27543,1.21717 -3.77148,-0.67969 -0.25373,-0.97029 -1.11469,-2.01551 -1.91406,-2.32226 -0.81224,-0.31168 -1.18323,-0.12274 -0.8418,0.42968 0.33602,0.54371 0.15493,0.99024 -0.40234,0.99024 -1.58699,0 -8.21188,-9.20233 -7.87696,-10.94141 0.17581,-0.91294 1.3287,-1.55859 2.78516,-1.55859 1.53512,0 2.3806,0.50654 2.21094,1.32422 -0.15112,0.72869 0.15601,1.05727 0.68164,0.73242 0.52562,-0.32486 1.25832,-0.10233 1.62695,0.49414 0.36864,0.59647 1.32315,0.83353 2.1211,0.52734 0.79794,-0.3062 1.18811,-0.13328 0.86914,0.38282 -1.44308,2.33495 9.36739,4.54863 11.55078,2.36523 0.49862,-0.49862 0.45768,-2.15365 -0.0957,-3.85156 -0.96858,-2.97177 -0.96879,-2.97107 -0.60742,-0.20117 0.19904,1.52562 -0.0296,3.01426 -0.50586,3.30859 -0.47624,0.29434 -0.86523,-0.84098 -0.86523,-2.52344 0,-1.91388 -0.46793,-2.965 -1.25,-2.80859 -0.6875,0.1375 -1.15452,-0.2634 -1.03711,-0.89063 0.11741,-0.62722 -0.88048,-1.34963 -2.21875,-1.60546 -1.33826,-0.25582 -2.21459,-0.11224 -1.94727,0.32031 0.26733,0.43254 0.0277,1.0686 -0.53125,1.41406 -0.55897,0.34546 -1.01562,0.12664 -1.01562,-0.48828 0,-0.61492 -0.45644,-0.83573 -1.01563,-0.49024 -0.55894,0.34547 -0.78667,0.99877 -0.50586,1.45313 0.28081,0.45437 -0.14889,1.08006 -0.95312,1.38867 -1.95526,0.75031 -2.98245,-1.0957 -1.5625,-2.80664 0.80012,-0.9641 0.81745,-1.56346 0.0606,-2.03125 -0.59033,-0.36485 -0.94995,-0.0881 -0.79883,0.61524 0.17622,0.82015 -0.85895,1.29511 -2.88867,1.32421 -2.48055,0.0356 -2.93252,-0.23464 -2.08985,-1.25 0.59135,-0.71257 1.66354,-1.06897 2.38281,-0.79296 0.71927,0.27601 1.61657,0.002 1.99414,-0.60938 0.44466,-0.71945 0.22476,-0.82475 -0.62304,-0.30078 -0.89112,0.55074 -1.06784,0.41817 -0.55469,-0.41211 0.57159,-0.92486 1.17841,-0.8334 2.51367,0.375 1.38406,1.25255 2.34123,1.37213 4.47071,0.5625 2.93929,-1.11752 7.89591,-0.36231 7.01171,1.06836 -0.29976,0.48503 0.0687,0.64703 0.81836,0.35937 0.74964,-0.28767 3.44547,1.06911 5.99219,3.01368 5.78255,4.4153 17.191,10.32483 21.50977,11.14257 1.79357,0.33961 3.50657,1.01718 3.80859,1.50586 0.91514,1.48072 -4.68497,3.02373 -7.99414,2.20313 -1.69196,-0.41956 -3.52617,-0.78621 -4.07617,-0.81641 -0.55,-0.0302 -1.675,-0.46716 -2.5,-0.9707 -1.32518,-0.80881 -1.32922,-0.6902 -0.0332,1.02539 0.80687,1.06808 1.56948,2.10532 1.69531,2.30469 0.12583,0.19936 2.67498,0.5435 5.66406,0.76367 4.88426,0.35977 5.9598,0.0475 10.61328,-3.08398 4.51836,-3.04085 5.09252,-3.21861 4.51172,-1.38868 -0.42386,1.33547 -0.28806,1.86366 0.37305,1.45508 0.57092,-0.35285 1.36374,-0.11465 1.76172,0.5293 0.42382,0.68575 0.29147,0.90424 -0.31836,0.52734 -1.19558,-0.73891 -3.88182,2.05373 -2.91016,3.02539 0.35337,0.35338 0.64258,0.11819 0.64258,-0.52343 0,-0.64169 0.43601,-1.16602 0.96875,-1.16602 0.53273,0 0.70916,0.675 0.39258,1.5 -1.11748,2.91209 0.61785,1.452 2.67382,-2.25 1.14544,-2.0625 1.77257,-2.85 1.39454,-1.75 -0.37803,1.1 -0.87884,3.125 -1.11329,4.5 l -0.42578,2.5 1.51953,-2.5 c 0.83569,-1.375 1.53519,-1.9375 1.55469,-1.25 0.055,1.94046 2.02627,1.47233 2.10547,-0.5 0.0575,-1.43238 0.19365,-1.47776 0.75,-0.25 0.98459,2.17281 3.94511,2.35436 4.48633,0.27539 0.43295,-1.66318 0.46948,-1.66431 0.57812,-0.0254 0.0638,0.9625 0.56524,1.75 1.11524,1.75 0.55,0 0.94856,-2.1375 0.88476,-4.75 -0.0638,-2.6125 -0.33306,-3.85 -0.59765,-2.75 -0.26458,1.1 -0.85278,2.39135 -1.30664,2.87109 -0.45361,0.47975 -0.45714,-0.75775 -0.008,-2.75 0.96739,-4.28924 0.4065,-4.74419 -1.07226,-0.87109 -1.01408,2.65605 -1.09801,2.68341 -2.47461,0.80859 -0.78392,-1.06762 -1.42578,-1.40512 -1.42578,-0.75 0,0.65512 -0.47614,1.19141 -1.0586,1.19141 -0.58244,0 -0.81016,-0.40416 -0.50586,-0.89648 0.30431,-0.49236 -0.14914,-1.16465 -1.00781,-1.49415 -1.01067,-0.38783 -1.44933,-1.55729 -1.24414,-3.3164 0.26426,-2.26553 1.05956,-2.93111 4.78125,-4.00391 2.45518,-0.70772 8.30518,-1.76091 13,-2.33984 8.45066,-1.04207 20.27475,-3.71433 29.10156,-6.57813 3.0834,-1.00038 5.13227,-2.43961 6.30664,-4.42773 0.95674,-1.61961 1.296,-2.94336 0.75196,-2.94336 -0.54403,0 -1.27569,0.89942 -1.625,2 -0.66793,2.10446 -4.26617,4.5678 -5.24414,3.58984 -0.31479,-0.31479 -1.08767,-0.14484 -1.71875,0.37891 -1.04366,0.86617 -17.26248,4.10418 -19.91797,3.97656 -1.88309,-0.0905 10.72505,-4.04159 13.15039,-4.12109 2.10154,-0.0688 2.14062,-0.17129 0.50781,-1.36524 -1.20504,-0.88114 -1.97216,-0.95301 -2.41992,-0.22851 -0.36048,0.58326 -1.39952,0.77463 -2.30859,0.42578 -1.09328,-0.41953 -1.41186,-0.24634 -0.94336,0.51172 0.48178,0.77953 0.0165,0.96583 -1.45117,0.58203 -1.18677,-0.31034 -1.95819,-0.2414 -1.71485,0.15234 0.24334,0.39373 -1.44297,1.21238 -3.74805,1.82032 l -4.1914,1.10546 5.25195,-4.85156 c 2.8886,-2.6687 6.0386,-4.88633 7,-4.92773 2.86218,-0.12319 7.71106,-0.71687 8.24805,-1.00977 0.275,-0.15 5.86749,-0.37871 12.42773,-0.50781 l 11.92774,-0.23438 -2.75,2.36524 c -1.51254,1.30104 -3.23686,2.0651 -3.83203,1.69726 -0.62138,-0.38403 -0.7966,-0.20535 -0.41016,0.41993 0.40539,0.65593 -1.75146,2.25212 -5.42578,4.01562 -5.36925,2.57699 -5.82167,3.00645 -3.76953,3.58203 2.04657,0.57401 2.12936,0.7753 0.67187,1.63867 -3.13724,1.8584 -33.30096,7.17833 -40.83984,7.20313 l -7.5,0.0254 6,1.93164 c 5.52614,1.78023 17.07034,2.2837 18.5,0.80664 1.03977,-1.07425 10.18994,-2.98442 11.22656,-2.34375 0.64599,0.39924 0.79454,0.20394 0.36914,-0.48437 -0.4145,-0.67068 -0.10329,-1.1543 0.74219,-1.1543 0.80047,0 4.69516,-1.31966 8.65625,-2.93164 3.96109,-1.61197 7.72207,-2.73838 8.35547,-2.50195 0.6334,0.23643 2.50039,-0.51636 4.15039,-1.67383 1.67831,-1.17732 2.11887,-1.78817 1,-1.38672 -3.21075,1.15202 -9.37362,1.50674 -9.95117,0.57226 -0.29193,-0.47236 0.92824,-1.13445 2.71093,-1.4707 1.78269,-0.33625 5.86176,-2.19138 9.06446,-4.12305 3.20269,-1.93168 6.3095,-3.21135 6.90429,-2.84375 0.59478,0.36759 0.80086,0.21528 0.45899,-0.33789 -0.34188,-0.55316 3.35174,-4.89536 8.20898,-9.64843 10.00065,-9.78616 18.38101,-14.45515 26.2461,-14.49024 z m 6.03906,1.98438 c -0.37761,0.10275 0.29123,1.47256 2.30664,4.99804 1.36838,2.39364 2.46655,5.25352 2.43945,6.35352 -0.0299,1.21303 -0.97767,0.0326 -2.40625,-3 -1.29547,-2.75 -2.3917,-4.48983 -2.4375,-3.86524 -0.0458,0.62464 0.58855,2.42463 1.41016,4 0.82161,1.57538 1.497,3.56166 1.5,4.41407 0.003,0.85241 1.22142,3.42369 2.70703,5.71484 1.48561,2.29115 2.89981,3.96738 3.14258,3.72461 0.24276,-0.24276 -0.11138,-1.10767 -0.78711,-1.92187 -0.67572,-0.8142 -0.89561,-2.01867 -0.48828,-2.67774 0.46851,-0.75808 0.3163,-0.93576 -0.41406,-0.48437 -1.2183,0.75297 -1.60425,-0.94493 -1.25782,-5.53321 0.19315,-2.55817 -3.20259,-10.32468 -5,-11.43554 -0.34739,-0.21471 -0.58897,-0.32136 -0.71484,-0.28711 z m -7.98828,2.33203 c -0.10606,-0.0322 -0.28893,0.003 -0.54688,0.10156 -1.29684,0.49764 -4.64648,6.13349 -4.64648,7.81836 0,0.32938 0.45,0.59961 1,0.59961 0.55,0 1,-0.83937 1,-1.86524 0,-1.02582 0.93063,-3.0497 2.06836,-4.49609 1.07335,-1.36456 1.44317,-2.06163 1.125,-2.1582 z m -11.58203,0.86133 c -0.3586,-0.0603 -0.61133,0.16081 -0.61133,0.59765 0,0.58246 0.45,1.06055 1,1.06055 0.55,0 1,-0.19887 1,-0.44141 0,-0.24254 -0.45,-0.71867 -1,-1.05859 -0.1375,-0.085 -0.26914,-0.13811 -0.38867,-0.1582 z m 11.35351,2.1582 -2.0918,4.5 c -1.15109,2.475 -2.17433,5.4 -2.27343,6.5 -0.0992,1.1 -0.75876,1.87574 -1.46485,1.72461 -0.70609,-0.15112 -0.98394,0.21127 -0.61718,0.80469 0.36675,0.59343 -0.61241,2.1789 -2.17578,3.52343 -1.56339,1.34453 -2.32585,2.44465 -1.69532,2.44532 1.53582,0.002 7.24606,-6.58669 8.44727,-9.7461 0.52808,-1.38895 1.16546,-4.15122 1.41601,-6.13867 l 0.45508,-3.61328 z m -12.9668,0.50195 c -0.0281,0.0732 0.26973,0.47625 0.875,1.24805 0.75485,0.9625 1.48665,1.75 1.62696,1.75 0.14031,0 0.85176,-0.7875 1.58008,-1.75 1.11829,-1.47791 1.10904,-1.56095 -0.0547,-0.52539 -1.08813,0.96827 -1.70842,0.96827 -2.95117,0 -0.69409,-0.54079 -1.048,-0.79585 -1.07618,-0.72266 z m -3.41406,2.45117 c -0.23176,0.0465 -0.27323,0.23782 -0.0762,0.55664 0.33602,0.54371 1.03324,0.99024 1.55078,0.99024 1.43843,0 1.12305,-0.71802 -0.60937,-1.38281 -0.22247,-0.0854 -0.41497,-0.13866 -0.57227,-0.16211 -0.11797,-0.0176 -0.21571,-0.0174 -0.29297,-0.002 z m 8.31836,2.82813 c -0.97023,0.0731 -1.57392,0.44075 -1.3418,0.81641 0.48673,0.78752 -4.68463,4.45689 -5.81054,4.12304 -0.4125,-0.12231 -0.75,0.25864 -0.75,0.84571 0,0.62073 -0.94153,0.8132 -2.25,0.45898 l -2.25,-0.60937 2.31836,1.36328 c 2.76972,1.62899 2.92944,1.4743 -8.81836,8.44726 -16.00339,9.49887 -30.37544,15.79301 -38.34961,16.79492 -5.30905,0.66705 -6.69595,2.06543 -1.875,1.89063 2.41339,-0.0875 2.74958,0.015 0.95508,0.29101 -1.52295,0.23422 -2.56893,0.75055 -2.32422,1.14649 0.2447,0.39594 -0.7587,0.66054 -2.23047,0.58984 -4.18919,-0.20108 -4.31214,-0.30421 -3.15625,-2.68945 0.984,-2.03053 0.95313,-2.0793 -0.32422,-0.5 -0.77847,0.9625 -1.97822,1.75 -2.66601,1.75 -0.6878,0 -0.19615,0.85395 1.09374,1.89844 1.66103,1.34506 3.29852,1.74445 5.61133,1.36914 2.07464,-0.33667 3.26563,-0.11689 3.26563,0.60156 0,0.62196 0.27357,1.13086 0.60742,1.13086 0.33388,0 0.32836,-0.72509 -0.0117,-1.61133 -0.44514,-1.16 -0.19543,-1.4401 0.89258,-1 0.83124,0.33624 2.29922,0.8782 3.26172,1.20508 1.47343,0.50041 1.51294,0.42411 0.25,-0.48438 -1.20986,-0.87031 -0.91972,-1.10261 1.5,-1.19531 2.94725,-0.11297 2.95604,-0.1275 0.5,-0.91406 -2.1982,-0.70399 -2.01712,-0.82125 1.5,-0.9707 2.2,-0.0935 4.9,-0.56541 6,-1.04883 1.3244,-0.58205 -0.0268,-0.73612 -4,-0.45508 l -6,0.42383 7,-1.36719 c 7.05796,-1.37967 15.27962,-4.34498 12.5,-4.50781 -0.825,-0.0483 2.1,-1.87835 6.5,-4.06641 4.4,-2.18805 8.45,-4.54816 9,-5.24414 0.55,-0.69598 3.61791,-2.97634 6.8164,-5.06836 3.1985,-2.09201 5.6293,-4.34201 5.40235,-5 -0.4284,-1.24203 7.15367,-6.89326 8.29883,-6.18555 0.35738,0.22087 0.64843,-0.22074 0.64843,-0.98046 0,-0.75971 -0.79344,-1.32115 -1.76367,-1.24805 z m -9.96094,2.71875 c -0.58246,0 -0.78132,0.45 -0.4414,1 0.33992,0.55 0.81605,1 1.05859,1 0.24254,0 0.44141,-0.45 0.44141,-1 0,-0.55 -0.47614,-1 -1.0586,-1 z m 35.97657,1.12305 c -0.3474,-0.0143 -0.74454,0.0489 -1.10547,0.19336 -0.79773,0.31922 -0.56144,0.55551 0.60351,0.60351 1.05416,0.0434 1.64479,-0.1931 1.3125,-0.52539 -0.16614,-0.16612 -0.46315,-0.25718 -0.81054,-0.27148 z m -15.55274,1.22265 c 0.091,0.0138 0.19865,0.16765 0.31836,0.4668 0.28891,0.72187 0.25221,1.58372 -0.0801,1.91602 -0.3323,0.33229 -0.56683,-0.25834 -0.52343,-1.3125 0.03,-0.7281 0.13358,-1.09327 0.28515,-1.07032 z m 5.90235,1.35156 1.33007,2.4004 c 1.78838,3.22716 1.70214,4.88179 -0.1289,2.46093 -0.80751,-1.06762 -1.46875,-1.46082 -1.46875,-0.87304 0,1.43557 2.52175,3.45872 3.31836,2.66211 0.34895,-0.34895 0.91883,0.10409 1.26562,1.00781 0.34679,0.90372 1.36978,1.67925 2.27344,1.72265 1.08903,0.0523 1.21015,0.252 0.35938,0.59375 -0.70599,0.28357 -1.90864,-10e-4 -2.67188,-0.63476 -1.11898,-0.92867 -1.28846,-0.77248 -0.875,0.80859 0.56413,2.15725 -2.64925,3.84496 -4.91016,2.57813 -0.69242,-0.38798 -0.49047,0.1099 0.44922,1.10742 1.31303,1.39384 2.99127,1.76213 7.25,1.58984 5.41841,-0.21922 6.80127,0.62906 4.29102,2.63086 -0.6875,0.54825 -2.70731,1.19939 -4.48828,1.44727 -2.50898,0.34921 -3.36988,0.0367 -3.82227,-1.38867 -0.32112,-1.01177 -0.97262,-1.59924 -1.44922,-1.30469 -0.47659,0.29456 -1.28979,-0.22098 -1.80664,-1.14453 -0.51684,-0.92355 -2.00804,-1.77357 -3.3125,-1.89063 -1.46555,-0.13151 -2.23022,-0.73967 -2.00195,-1.59179 0.20317,-0.75845 0.4282,-2.05391 0.5,-2.87891 0.0718,-0.825 0.58086,-1.83225 1.13086,-2.23633 0.65351,-0.48014 0.63341,-0.74 -0.0586,-0.75 -0.58238,-0.008 -1.93238,0.66193 -3,1.48828 -1.61812,1.25245 -1.6502,1.40062 -0.1914,0.89258 2.48897,-0.86679 2.16876,1.19871 -0.47266,3.04883 -2.92304,2.04738 -4.77407,1.97267 -4.79297,-0.19336 -0.0131,-1.49555 -0.15594,-1.5319 -0.98437,-0.25 -0.67782,1.04886 -0.97368,1.11474 -0.98438,0.21875 -0.008,-0.70477 0.65938,-1.54084 1.48438,-1.85742 0.825,-0.31659 1.5,-1.17326 1.5,-1.90235 0,-0.72909 0.9,-1.60985 2,-1.95898 1.1,-0.34913 2,-1.05542 2,-1.56836 0,-1.43011 5.98948,-1.11649 6.08008,0.31836 0.0434,0.6875 0.55265,-0.0566 1.13281,-1.65234 l 1.05469,-2.9004 z m -31.95313,2.20313 c -0.26119,-0.0233 -0.83192,0.28427 -1.74609,1.04297 -0.8142,0.67569 -1.91899,0.95632 -2.45508,0.625 -0.53609,-0.33132 -1.30124,-0.0756 -1.69922,0.56836 -0.47385,0.76671 -0.28713,0.90319 0.53906,0.39258 0.94471,-0.58387 1.07871,-0.18481 0.53516,1.59375 -0.69781,2.28332 -0.60525,2.2631 2.38281,-0.55079 2.09061,-1.9687 3.01798,-3.62054 2.44336,-3.67187 z m -33.36328,0.14063 c -0.8525,-0.0231 -1.9775,0.35751 -2.5,0.8457 -0.5225,0.48818 -2.01979,1.21168 -3.32617,1.60742 -1.77725,0.53838 -2.17914,0.40104 -1.5957,-0.54297 0.5106,-0.82619 0.37608,-1.01096 -0.39063,-0.53711 -0.64399,0.39798 -0.91214,1.1423 -0.5957,1.6543 0.31643,0.51199 1.11058,0.91177 1.76562,0.88867 1.90494,-0.067 8.35529,-3.86976 6.64258,-3.91601 z m 5.59375,0.084 c -0.63133,0.004 -1.33957,0.26925 -1.77539,0.70508 -0.74207,0.74207 -0.3528,0.87247 1.31055,0.4375 1.3522,-0.35361 1.80559,-0.80699 1.05664,-1.05664 -0.18036,-0.0601 -0.38136,-0.0873 -0.5918,-0.0859 z m -18.20117,1.875 c -0.56847,0 -1.84826,0.9 -2.84375,2 -0.99549,1.1 -1.49652,2 -1.11328,2 0.38324,0 1.66304,-0.9 2.84375,-2 1.18068,-1.1 1.68174,-2 1.11328,-2 z m 39.15625,2.04102 c -0.55,0.017 -2.35,1.13579 -4,2.48828 -1.65,1.35248 -2.55,2.44668 -2,2.42968 0.55,-0.017 2.35,-1.13774 4,-2.49023 1.65,-1.35248 2.55,-2.44473 2,-2.42773 z m 14.5,0.95898 c -0.0516,-0.0516 -0.45697,0.24916 -1.25,0.87109 -0.9625,0.75485 -1.75,1.54235 -1.75,1.75 0,0.82304 0.82058,0.29466 2.12695,-1.37109 0.62194,-0.79303 0.92466,-1.19838 0.87305,-1.25 z m 45,0 c -0.0516,-0.0516 -0.45697,0.24916 -1.25,0.87109 -0.9625,0.75485 -1.75,1.54235 -1.75,1.75 0,0.82304 0.82058,0.29466 2.12695,-1.37109 0.62194,-0.79303 0.92466,-1.19838 0.87305,-1.25 z m 6.05859,0 c -0.58246,0 -1.05859,0.45 -1.05859,1 0,0.55 0.19886,1 0.4414,1 0.24254,0 0.71868,-0.45 1.0586,-1 0.33992,-0.55 0.14105,-1 -0.44141,-1 z m -95.20508,0.52344 c -0.30468,0.0335 -0.51953,0.41892 -0.51953,1.01953 0,1.68617 0.31443,1.83377 1.12305,0.52539 0.31644,-0.512 0.19386,-1.16822 -0.27344,-1.45703 -0.11683,-0.0722 -0.22852,-0.0991 -0.33008,-0.0879 z m 66.14649,1.47656 c -0.55,0 -1,0.45 -1,1 0,0.55 0.45,1 1,1 0.55,0 1,-0.45 1,-1 0,-0.55 -0.45,-1 -1,-1 z m 10.87695,2.0332 c 0.55775,0.0246 1.10375,0.46984 1.42188,1.29883 0.28141,0.73334 -0.12198,1.33395 -0.89453,1.33399 -1.78738,0 -2.4982,-0.70665 -1.81836,-1.80665 0.29592,-0.47881 0.6708,-0.74454 1.05273,-0.81054 0.0796,-0.0138 0.1586,-0.0191 0.23828,-0.0156 z M 480.83203,465 c -0.2239,0.0319 -0.58322,0.24974 -1.08789,0.71484 -0.76953,0.70919 -1.22455,1.47288 -1.00976,1.69727 0.21476,0.2244 0.0581,0.9223 -0.34961,1.54883 -0.40772,0.62653 0.0453,0.27982 1.00781,-0.76953 1.55682,-1.69731 2.11116,-3.28712 1.43945,-3.19141 z m -6.91211,0.12305 c -0.34231,0.0312 -1.18515,0.66649 -2.02734,1.54883 -0.96254,1.00833 -1.35571,1.83398 -0.87305,1.83398 1.00856,0 3.60636,-2.89211 3.01563,-3.35742 -0.027,-0.0213 -0.0663,-0.0298 -0.11524,-0.0254 z m -38.19336,0.83593 c -0.23176,0.0465 -0.27323,0.23782 -0.0762,0.55664 0.33602,0.54371 1.03324,0.99024 1.55078,0.99024 1.43843,0 1.12305,-0.71802 -0.60937,-1.38281 -0.22247,-0.0854 -0.41497,-0.13866 -0.57227,-0.16211 -0.11797,-0.0176 -0.21571,-0.0174 -0.29297,-0.002 z m -96.02539,1.54688 c -0.24254,0 -0.71867,0.45 -1.05859,1 -0.33992,0.55 -0.14106,1 0.4414,1 0.58246,0 1.0586,-0.45 1.0586,-1 0,-0.55 -0.19887,-1 -0.44141,-1 z m 57.8086,0 c 1.74511,0 2.50356,0.40171 2.07226,1.09961 -0.46259,0.74849 0.0171,0.72541 1.50391,-0.0703 1.67115,-0.89441 2.51924,-0.89106 3.60937,0.0137 0.78376,0.65049 1.17837,1.58263 0.87696,2.07031 -0.3014,0.48768 0.12812,0.88672 0.95312,0.88672 1.94759,0 2.78058,1.40964 2.01367,3.4082 -0.33563,0.87463 -0.90024,1.51212 -1.2539,1.41602 -0.35365,-0.0961 -2.55508,-0.3461 -4.89258,-0.55664 -2.3375,-0.21053 -4.25,-0.80779 -4.25,-1.32617 0,-0.51837 0.45,-0.94141 1,-0.94141 0.55,0 1,-0.43601 1,-0.96875 0,-0.53273 -0.74884,-0.68128 -1.66406,-0.33008 -1.20682,0.4631 -1.44004,0.27491 -0.84766,-0.68359 0.52012,-0.84157 0.14873,-1.81138 -1.02539,-2.66992 -1.71113,-1.2512 -1.64781,-1.34766 0.9043,-1.34766 z m 23.01171,0.32226 c 0.11107,0.0406 0.25607,0.26874 0.44141,0.67774 0.37384,0.825 1.57969,1.65399 2.67969,1.84375 2.64192,0.45576 4.66685,2.18379 4.16406,3.55469 -0.22188,0.60495 0.19053,2.56406 0.91602,4.35156 0.72545,1.7875 1.06037,3.25 0.74609,3.25 -0.31428,0 -0.12288,0.5625 0.42383,1.25 2.58945,3.25629 -1.95221,8.83627 -8.75,10.75195 -1.925,0.54249 -5.3,0.9064 -7.5,0.8086 -2.2,-0.0978 -10.11977,-0.43248 -17.59961,-0.74414 -14.9134,-0.62141 -16.26983,-1.12864 -17.78906,-6.63086 -0.73752,-2.67105 -0.45996,-4.49032 1.38086,-9.01953 2.75132,-6.76948 4.352,-8.08608 6.35351,-5.22852 1.24036,1.77086 2.14846,1.97729 6.54688,1.48047 4.75834,-0.53747 4.93649,-0.48192 2.60742,0.81836 -1.375,0.76763 -4.40947,1.36552 -6.74414,1.32812 -4.15927,-0.0666 -7.25586,1.41108 -7.25586,3.46289 0,0.5679 0.87564,0.23952 1.94531,-0.72851 1.54586,-1.39899 2.93065,-1.62645 6.75,-1.10742 9.97615,1.3557 18.52786,1.72624 17.94141,0.77734 -0.32388,-0.52405 0.22685,-1.69079 1.22461,-2.59375 1.68938,-1.52887 1.94047,-1.50211 3.64453,0.38086 1.41458,1.56309 2.5741,1.8815 5.10742,1.40625 2.12825,-0.39926 4.43534,-0.0385 6.58203,1.0293 2.98123,1.4829 3.14788,1.48676 1.70313,0.0351 -0.88103,-0.88521 -4.15988,-1.95648 -7.28711,-2.38086 -6.26107,-0.84964 -10.06791,-3.0957 -5.2461,-3.0957 3.94134,0 6.62348,-1.71392 6.70508,-4.28516 0.0319,-1.00651 0.12348,-1.46014 0.30859,-1.39258 z m 33.95899,0.0586 c -0.0901,-0.002 -0.2079,0.0374 -0.34961,0.125 -0.5437,0.33602 -0.98828,1.03519 -0.98828,1.55273 0,1.43843 0.71607,1.12111 1.38086,-0.61133 0.25612,-0.66739 0.22731,-1.05958 -0.043,-1.0664 z M 230.45898,468.5 l -1.9082,2.17383 c -1.0492,1.19616 -1.3457,1.84536 -0.6582,1.44336 0.8884,-0.51947 1.25,0.16727 1.25,2.37109 0,1.71858 0.89154,4.05826 2,5.24805 1.1,1.18072 2,2.96074 2,3.95703 0,0.99629 -0.9,2.7125 -2,3.8125 -1.1,1.1 -2.9,2 -4,2 -1.33333,0 -2,-0.66667 -2,-2 0,-1.1 0.43601,-2 0.96875,-2 0.53273,0 0.68302,0.7875 0.33398,1.75 -0.39383,1.08599 0.15459,0.80142 1.44531,-0.75 2.63033,-3.16156 2.18413,-3.61113 -1.67578,-1.68555 -3.80868,1.90002 -4.35983,1.14557 -4.69922,-6.44531 -0.27837,-6.22711 0.15887,-6.91726 5.53516,-8.72852 l 3.4082,-1.14648 z m 105.24219,0.006 c -0.24254,0 -0.71867,0.45 -1.05859,1 -0.33992,0.55 -0.14106,1 0.4414,1 0.58246,0 1.0586,-0.45 1.0586,-1 0,-0.55 -0.19887,-1 -0.44141,-1 z m 56.51367,0.64062 c 4.91732,0.12894 6.03693,1.07299 3.48438,2.93946 -2.28886,1.67365 -8.14801,1.88756 -9.10938,0.33203 -1.15411,-1.86739 1.44876,-3.381 5.625,-3.27149 z m 189.48633,1.35938 c -0.24254,0 -0.71867,0.45 -1.05859,1 -0.33992,0.55 -0.14106,1 0.4414,1 0.58246,0 1.0586,-0.45 1.0586,-1 0,-0.55 -0.19887,-1 -0.44141,-1 z m 6.72656,0.54687 c 0.51741,0.0738 2.16016,0.93034 3.96485,2.08399 3.17932,2.03236 3.75,2.93846 3.75,5.94922 0,1.95315 -0.46581,4.42053 -1.03516,5.48437 -2.25884,4.22068 -7.77768,0.20479 -6.03125,-4.38867 0.6686,-1.75855 0.63964,-3.60247 -0.0879,-5.68945 -0.59215,-1.69866 -0.91203,-3.23756 -0.71094,-3.41992 0.0251,-0.0228 0.0765,-0.0301 0.15039,-0.0195 z m -116.36718,0.57618 c 0.34739,0.0143 0.6444,0.10534 0.81054,0.27148 0.33229,0.33229 -0.25834,0.56879 -1.3125,0.52539 -1.16495,-0.048 -1.40124,-0.28429 -0.60351,-0.60351 0.36093,-0.14446 0.75807,-0.20767 1.10547,-0.19336 z m -46.60352,0.32421 c -0.13028,-0.0113 -0.25791,0.0175 -0.375,0.0899 -0.46835,0.28945 -0.59962,1.18405 -0.29101,1.98828 0.30861,0.80423 0.94376,1.22501 1.4121,0.93555 0.46835,-0.28945 0.59963,-1.18405 0.29102,-1.98828 -0.23146,-0.60318 -0.64627,-0.99135 -1.03711,-1.0254 z m -63.31445,0.55274 c -0.0516,-0.0516 -0.45697,0.24916 -1.25,0.87109 -0.9625,0.75485 -1.75,1.54235 -1.75,1.75 0,0.82304 0.82058,0.29466 2.12695,-1.37109 0.62194,-0.79303 0.92466,-1.19838 0.87305,-1.25 z m 115,0.12891 c 0.45312,0 0.90625,0.0683 1.25,0.20703 0.6875,0.27741 0.125,0.50586 -1.25,0.50586 -1.375,0 -1.9375,-0.22845 -1.25,-0.50586 0.34375,-0.13871 0.79687,-0.20703 1.25,-0.20703 z m -124.08203,1.99414 c 0.34739,0.0143 0.64439,0.10534 0.81054,0.27148 0.33229,0.33229 -0.25834,0.56879 -1.3125,0.52539 -1.16495,-0.048 -1.40124,-0.28429 -0.60351,-0.60351 0.36093,-0.14446 0.75807,-0.20767 1.10547,-0.19336 z m 24.49218,0.15429 c 0.1836,-0.009 0.44102,0.17149 0.79102,0.52149 0.93333,0.93333 0.93333,1.46706 0,2.40039 -0.93333,0.93333 -1.20117,0.66745 -1.20117,-1.19922 0,-1.16667 0.10416,-1.70833 0.41015,-1.72266 z m 52.85547,0.91602 c 0.13797,0.0421 0.37984,0.60001 0.82032,1.70117 0.97931,2.44825 0.77444,3.63188 -0.41993,2.4375 -0.36667,-0.36666 -0.63646,-1.60416 -0.60156,-2.75 0.0291,-0.95779 0.0632,-1.43079 0.20117,-1.38867 z m -34.70117,0.21094 c 0.7785,0.009 2.01796,0.38923 3.16211,1.00976 l 2.77344,1.50586 -3.19141,0.0391 c -3.25564,0.0409 -5.13785,-1.32914 -3.34765,-2.43554 0.13648,-0.0844 0.34401,-0.12221 0.60351,-0.11914 z m -169.00586,0.5957 c -0.24254,0 -0.71867,0.45 -1.05859,1 -0.33992,0.55 -0.14106,1 0.4414,1 0.58246,0 1.0586,-0.45 1.0586,-1 0,-0.55 -0.19887,-1 -0.44141,-1 z m 232.51953,0.48437 c -0.0519,0.01 -0.10953,0.0337 -0.17187,0.0723 -0.49871,0.30822 -0.90625,1.20941 -0.90625,2.00195 0,2.06975 0.6804,1.77445 1.29101,-0.56054 0.25187,-0.96317 0.15029,-1.58099 -0.21289,-1.51368 z m 35.69922,0.13282 c -0.34231,0.0312 -1.18515,0.66649 -2.02734,1.54883 -0.96254,1.00832 -1.35571,1.83398 -0.87305,1.83398 1.00856,0 3.60636,-2.89211 3.01563,-3.35742 -0.027,-0.0213 -0.0663,-0.0298 -0.11524,-0.0254 z m -255.35156,0.45117 c -0.0294,-0.0274 -0.0889,0.0315 -0.17578,0.1875 -0.23184,0.41593 -0.94542,0.49416 -1.58594,0.17383 -0.64052,-0.32033 -0.10116,0.35224 1.19727,1.49414 2.79974,2.46223 2.77832,2.45812 3.45703,0.68945 0.37429,-0.97538 -0.0437,-1.23768 -1.40821,-0.88086 -1.30824,0.34212 -1.82456,0.0609 -1.58789,-0.86328 0.12068,-0.47112 0.15245,-0.75509 0.10352,-0.80078 z m 222.83203,0.3164 c -0.2639,0.0497 -0.50013,0.198 -0.64453,0.43165 -0.28881,0.46731 0.13083,0.84957 0.93164,0.84961 1.68617,-10e-6 1.83377,-0.31638 0.52539,-1.125 -0.256,-0.15822 -0.5486,-0.20593 -0.8125,-0.15626 z m -163.72266,0.0117 c -0.30475,0.0724 -0.68905,0.56893 -0.9707,1.3086 -0.54268,1.4252 -0.42707,1.5408 0.56055,0.56054 0.68342,-0.67834 0.98953,-1.48507 0.68164,-1.79296 -0.077,-0.077 -0.1699,-0.10032 -0.27149,-0.0762 z m 278.46289,1.10352 1.4375,6 c 0.79031,3.3 1.4647,6.63685 1.5,7.41602 0.0353,0.77917 0.36077,1.11971 0.72266,0.75781 0.3619,-0.36189 1.28156,-0.13973 2.04297,0.49219 0.97924,0.81272 1.69592,0.83728 2.44922,0.084 0.7533,-0.7533 0.44765,-1.39561 -1.04297,-2.19336 -1.15905,-0.62031 -2.10742,-2.07334 -2.10742,-3.22852 0,-1.86313 0.32194,-1.73176 2.8418,1.1543 3.33983,3.8253 5.11796,3.60824 10.24414,-1.24805 1.87805,-1.77918 2.98734,-2.89687 2.46484,-2.48437 -1.90083,1.50066 -2.35199,0.68503 -1.24414,-2.25 0.87439,-2.31651 1.74973,-3 3.8418,-3 4.14924,0 5.81126,2.24641 4.84179,6.54492 -0.84824,3.76098 -3.71718,7.73981 -5.00586,6.94336 -0.41185,-0.25453 -1.88454,0.43288 -3.27343,1.52539 -1.3889,1.0925 -2.90593,1.98061 -3.36914,1.97461 -0.46326,-0.006 0.62518,-1.16719 2.41796,-2.58008 1.79277,-1.41289 3.00414,-2.98227 2.69141,-3.48828 -0.86911,-1.40625 -2.45531,-1.09542 -1.89258,0.3711 0.27266,0.71053 -0.85822,2.29364 -2.51367,3.51757 -2.96095,2.18912 -3.04205,2.19428 -4.91797,0.31836 -1.87592,-1.87592 -1.92376,-1.86665 -3.02344,0.54688 -0.61482,1.34939 -0.73155,2.21272 -0.25781,1.91992 0.47375,-0.29279 1.36092,0.56402 1.9707,1.90234 1.06613,2.33989 1.23951,2.37783 4.53711,1 3.20453,-1.33893 3.46436,-1.30403 3.94532,0.53516 0.28308,1.0825 1.23093,1.96875 2.10742,1.96875 0.87649,0 1.59375,0.41009 1.59375,0.91211 0,0.50197 -1.39689,0.69311 -3.10547,0.42383 -2.33535,-0.36804 -2.91325,-0.17574 -2.32422,0.77734 0.43095,0.69729 -0.9827,0.25638 -3.14258,-0.98047 -2.15988,-1.23684 -2.91523,-1.49419 -1.67773,-0.57031 1.2375,0.92389 2.25,2.07568 2.25,2.55859 0,0.48292 -0.6592,0.87891 -1.46485,0.87891 -1.7249,0 -3.89541,-3.60735 -3.02148,-5.02148 0.3329,-0.53864 0.0964,-0.98047 -0.52539,-0.98047 -1.98168,0 -4.00291,-2.78721 -3.39063,-4.67579 0.49256,-1.51922 0.41029,-1.57337 -0.48828,-0.32421 -0.89418,1.24303 -1.08105,1.10486 -1.09375,-0.8086 -0.009,-1.28602 -0.45908,-2.0346 -1.01758,-1.68945 -0.6612,0.40866 -0.62761,1.32061 0.0977,2.67578 0.86882,1.62338 0.81612,1.9621 -0.24805,1.61133 -0.74091,-0.24421 -1.49114,-1.42828 -1.66796,-2.63086 -0.17683,-1.20258 -0.74793,-1.92468 -1.26758,-1.60352 -0.51965,0.32116 -0.68558,1.00363 -0.36914,1.51563 0.31645,0.51199 0.30956,0.92969 -0.0156,0.92969 -0.32518,0 -1.03711,-1.0125 -1.58203,-2.25 -0.95937,-2.17867 -0.97587,-2.16903 -0.50977,0.25976 0.26477,1.37957 0.0163,3.17957 -0.55273,4 -0.91513,1.31985 -0.98616,1.31908 -0.61914,-0.008 0.22819,-0.825 -0.15711,-2.87377 -0.85547,-4.55274 -0.72707,-1.74799 -0.91454,-3.62776 -0.43945,-4.39648 0.64331,-1.04089 0.94926,-0.9167 1.36523,0.55274 0.29492,1.04232 0.2964,-0.63837 0.002,-3.73438 -0.33963,-3.57122 -0.13349,-5.87724 0.56445,-6.30859 0.73874,-0.45657 1.12272,0.89961 1.16992,4.1289 0.0386,2.64496 0.45351,5.71055 0.92188,6.81055 0.53294,1.25163 0.69436,-0.61929 0.42968,-5 l -0.42383,-7 z m -288.70898,0.0547 c 0.229,-0.0427 -0.21286,0.60271 -1.21289,1.72461 -2.69849,3.02732 -3.11461,3.09496 -8.0332,1.31836 l -3.45703,-1.24805 5.28906,-0.12109 c 2.9086,-0.0663 6.03934,-0.69352 6.95703,-1.39454 0.22942,-0.17525 0.3807,-0.26505 0.45703,-0.27929 z m -38.74414,0.68359 c -0.0976,0.008 -0.24342,0.0742 -0.43945,0.19531 -0.60192,0.372 -1.59139,1.60645 -2.19922,2.74219 -0.79188,1.47951 -0.79585,1.87329 -0.0117,1.38867 0.60191,-0.372 1.59139,-1.60644 2.19922,-2.74219 0.5939,-1.10963 0.74399,-1.60834 0.45117,-1.58398 z m 42.99023,0.1582 c 0.10159,-0.0241 0.19452,-8e-4 0.27149,0.0762 0.30789,0.30789 0.002,1.11462 -0.68164,1.79296 -0.98762,0.98026 -1.10323,0.86466 -0.56055,-0.56054 0.28165,-0.73967 0.66595,-1.23616 0.9707,-1.3086 z m -74.88281,0.31446 c 0.61024,0.0886 1.30119,1.42563 2.8711,4.74414 2.59401,5.4833 2.62143,5.72273 0.83007,7.18945 -1.6625,1.36121 -1.67353,1.46046 -0.10351,0.9668 0.9625,-0.30264 1.75,-0.15092 1.75,0.33593 0,0.48691 -0.54077,1.06503 -1.20117,1.28516 -0.92445,0.30816 -0.91706,0.57453 0.0273,1.1582 0.81343,0.50273 1.59308,-0.29198 2.31445,-2.36132 0.59829,-1.71625 1.59767,-2.94221 2.22266,-2.72266 1.29041,0.45332 0.95868,3.57126 -0.58008,5.44336 -2.0769,2.52683 -7.58757,0.10685 -8.3457,-3.66406 -0.28612,-1.42312 -0.931,-4.11676 -1.43164,-5.98633 -0.66582,-2.48645 -0.54257,-3.92473 0.46094,-5.35742 0.48156,-0.68754 0.8194,-1.08441 1.18554,-1.03125 z m 362.30469,0.16015 c 0.1755,0.0166 0.38128,0.13323 0.61328,0.36524 0.3138,0.31379 0.41798,2.07564 0.23047,3.91601 l -0.3418,3.34766 -0.82422,-3.32227 c -0.63589,-2.56089 -0.43823,-4.37855 0.32227,-4.30664 z m -207.74414,0.20117 c 0.12954,0.004 0.23748,0.0422 0.31445,0.11915 0.30789,0.30789 -0.24815,0.86861 -1.23437,1.24414 -1.4252,0.54268 -1.53886,0.42707 -0.5586,-0.56055 0.50876,-0.51257 1.08989,-0.81414 1.47852,-0.80274 z m -114.01758,0.33399 c -0.1,0.0273 -0.15753,0.11944 -0.16211,0.2832 -0.0183,0.65504 0.42345,1.47489 0.98242,1.82031 0.55899,0.34547 0.77327,1.02262 0.47461,1.50586 -0.29866,0.48324 0.33875,0.7098 1.41797,0.50196 1.07923,-0.20784 2.49758,0.26419 3.15039,1.05078 1.91513,2.30759 1.97499,1.6535 0.14453,-1.56445 -1.14787,-2.01796 -1.8093,-2.50066 -2.02929,-1.48243 -0.25543,1.18225 -0.73789,1.0173 -2.2168,-0.75586 -0.77973,-0.93486 -1.46182,-1.44118 -1.76172,-1.35937 z m 60.9707,0.17578 c -0.13257,-0.0126 -0.28511,-0.0126 -0.45312,0.002 -0.22402,0.0195 -0.47579,0.0641 -0.74609,0.13477 -2.28362,0.59718 -2.44469,1.54378 -0.72657,4.29492 0.6823,1.09254 1.63428,1.98633 2.11524,1.98633 0.48095,0 0.13726,-1.125 -0.76367,-2.5 -2.03903,-3.11194 -1.05018,-3.28699 1.4121,-0.25 1.00331,1.2375 2.19923,1.87544 2.65821,1.41797 0.45898,-0.45747 -0.0649,-1.50146 -1.16407,-2.32031 -1.09914,-0.81885 -1.89994,-1.86164 -1.78124,-2.31641 0.0668,-0.25581 -0.15307,-0.41157 -0.55079,-0.44922 z m -65.22461,0.41797 c -0.58246,0 -0.78132,0.45 -0.4414,1 0.33992,0.55 0.81605,1 1.05859,1 0.24254,0 0.44141,-0.45 0.44141,-1 0,-0.55 -0.47614,-1 -1.0586,-1 z m 236.13086,0.12305 c -0.0843,0.0228 -0.0339,0.148 0.16993,0.37304 0.40773,0.45007 0.23952,1.42206 -0.37305,2.16016 -0.70024,0.84375 -0.7361,1.34375 -0.0977,1.34375 1.56155,0 2.29576,-2.84824 0.93555,-3.62891 -0.33174,-0.19039 -0.55048,-0.27088 -0.63477,-0.24804 z m -180.85742,0.0391 c -0.14228,0.0732 -0.18507,0.50974 -0.18554,1.33789 -9.1e-4,1.1 0.25538,2.9592 0.57031,4.13281 0.4036,1.50407 1.13738,1.98557 2.48633,1.63281 1.05256,-0.27525 1.8984,-0.78446 1.8789,-1.13281 -0.0665,-1.18827 -2.89441,-5.63633 -2.94531,-4.63281 -0.0279,0.55 -0.48637,0.325 -1.01953,-0.5 -0.40139,-0.62111 -0.64287,-0.91113 -0.78516,-0.83789 z m -65.60351,0.18164 c -0.3586,-0.0603 -0.61133,0.15886 -0.61133,0.5957 0,0.58246 0.45,1.06055 1,1.06055 0.55,0 1,-0.19887 1,-0.44141 0,-0.24254 -0.45,-0.71867 -1,-1.05859 -0.1375,-0.085 -0.26914,-0.13615 -0.38867,-0.15625 z m 63.55859,0.15625 0.10352,4.76172 c 0.0562,2.61937 0.42521,4.41937 0.82031,4 0.39509,-0.41937 0.34975,-2.56172 -0.10156,-4.76172 l -0.82227,-4 z m 161.82812,0.50195 c -0.0306,0.0709 0.26786,0.47386 0.875,1.24805 1.63579,2.08577 1.79873,2.11569 2.72852,0.5 0.39562,-0.6875 0.35047,-0.91749 -0.0996,-0.50977 -0.45007,0.40773 -1.53459,0.18273 -2.41015,-0.5 -0.7043,-0.54915 -1.06311,-0.80919 -1.09376,-0.73828 z m -155.61132,0.3418 c -0.33727,-0.0938 0.18826,1.11619 1.58008,3.90625 1.53323,3.07357 2.0332,3.40711 2.0332,1.35937 0,-0.76406 -0.93426,-2.45156 -2.07617,-3.75 -0.822,-0.93466 -1.33475,-1.45933 -1.53711,-1.51562 z m 183.95117,1.03711 c -0.0901,-0.002 -0.2079,0.0374 -0.34961,0.125 -0.5437,0.33602 -0.98828,1.03519 -0.98828,1.55273 0,1.43843 0.71607,1.1211 1.38086,-0.61133 0.25612,-0.66741 0.22731,-1.05958 -0.043,-1.0664 z m 88.3457,0.49219 c 1.2767,0.0309 3.05243,0.85719 4.50195,2.35351 1.4774,1.52512 2.11091,2.77344 1.40626,2.77344 -0.70468,0 -2.09912,-0.90444 -3.09766,-2.00781 -0.99854,-1.10337 -2.04367,-1.77664 -2.32422,-1.4961 -0.28054,0.28054 0.54428,1.63499 1.83398,3.00782 1.28973,1.37283 1.89571,2.49609 1.34571,2.49609 -1.29993,0 -5.34961,-4.31443 -5.34961,-5.69922 0,-0.99525 0.6906,-1.45178 1.68359,-1.42773 z m -140.99219,0.17578 c -0.44496,-0.0271 -0.51955,0.41819 -0.16601,0.99023 0.41682,0.67443 -0.26598,0.81309 -1.94141,0.39258 -1.94567,-0.48833 -2.58398,-0.26634 -2.58398,0.90039 0,0.85217 0.52645,1.87377 1.16992,2.27149 0.8087,0.49979 0.96283,0.1336 0.49805,-1.18946 -0.65192,-1.85575 -0.62653,-1.85654 0.83007,0.0254 1.17636,1.5198 1.23064,2.1149 0.25196,2.73633 -0.89187,0.5663 -0.74869,0.79769 0.5,0.80859 0.9625,0.008 1.75762,0.57813 1.76562,1.26563 0.0103,0.83882 0.34452,0.75658 1.01758,-0.25 0.87061,-1.30203 1.14446,-1.25992 2.07617,0.32422 0.59035,1.00375 1.27184,1.6266 1.51367,1.38476 0.62564,-0.62563 -3.95625,-9.60065 -4.93164,-9.66015 z m -109.75,1.95117 c -0.58246,0 -0.78132,0.45 -0.4414,1 0.33992,0.55 0.81605,1 1.05859,1 0.24254,0 0.44141,-0.45 0.44141,-1 0,-0.55 -0.47614,-1 -1.0586,-1 z m 40.45118,0 c 0.21616,0 0.65216,0.675 0.96875,1.5 0.31658,0.825 0.14015,1.5 -0.39258,1.5 -0.53274,0 -0.96875,-0.675 -0.96875,-1.5 0,-0.825 0.17643,-1.5 0.39258,-1.5 z m 62.51172,0 c -0.47407,0 -0.34826,1.12658 0.27929,2.50391 0.62755,1.37732 1.27562,2.36891 1.43945,2.20507 0.60844,-0.60845 -0.88843,-4.70898 -1.71874,-4.70898 z m -107.29297,0.34375 c -0.3586,-0.0603 -0.61133,0.15886 -0.61133,0.5957 0,0.58246 0.45,1.06055 1,1.06055 0.55,0 1,-0.19887 1,-0.44141 0,-0.24254 -0.45,-0.71867 -1,-1.05859 -0.1375,-0.085 -0.26914,-0.13615 -0.38867,-0.15625 z m 283.26562,0.65625 c 1.90378,0 3.10744,2.82999 2.49805,5.87695 -0.65904,3.29521 -1.64041,4.52365 -2.73828,3.42578 -0.35364,-0.35364 0.0977,-1.80571 1.0039,-3.22461 l 1.64844,-2.57812 -2.78125,2.5 c -2.58297,2.32288 -2.69783,2.34396 -1.64258,0.31445 0.62465,-1.20134 1.13477,-3.11384 1.13477,-4.25 0,-1.13616 0.39429,-2.06445 0.87695,-2.06445 z m -5.33008,0.0215 c 1.31775,0.0284 2.72366,0.52039 3.08008,1.44922 0.31055,0.80927 -0.26594,3.17177 -1.28125,5.25 -1.68341,3.44575 -2.20586,3.7819 -5.9414,3.8086 l -4.09766,0.0293 2.84766,-3.92968 c 1.5655,-2.16114 2.8457,-4.53682 2.8457,-5.2793 0,-0.92115 1.22913,-1.35657 2.54687,-1.32813 z m -164.17187,0.32618 c 0.3265,-0.0653 0.99671,0.39345 1.60547,1.12695 0.78875,0.95039 0.86427,1.52539 0.20117,1.52539 -1.20855,0 -2.61732,-1.8983 -1.92383,-2.5918 0.0315,-0.0315 0.0705,-0.0512 0.11719,-0.0605 z m 125.32422,0.084 c 0.34335,0.1033 0.37993,0.63123 -0.15821,1.50195 -0.36254,0.58659 -1.13777,1.06641 -1.72265,1.06641 -0.6631,0 -0.58758,-0.575 0.20117,-1.52539 0.68577,-0.8263 1.33633,-1.14627 1.67969,-1.04297 z m -201.19922,0.56836 c 0.825,0 1.5,0.675 1.5,1.5 0,0.825 -0.675,1.5 -1.5,1.5 -0.825,0 -1.5,-0.675 -1.5,-1.5 0,-0.825 0.675,-1.5 1.5,-1.5 z m -102.8086,0.0137 c -0.71561,0.009 -0.59269,0.40387 0.3086,0.98633 1.92112,1.24153 2.2673,1.24153 1.5,0 -0.33992,-0.55 -1.15356,-0.99433 -1.8086,-0.98633 z m -52.03906,0.36914 c 0.26931,-0.1048 0.62087,0.24084 1.22656,0.97071 0.7393,0.89084 1.1123,2.63817 0.82813,3.88281 -0.28416,1.24465 -0.14073,3.16367 0.31836,4.26367 0.71157,1.70496 0.8444,1.74184 0.9043,0.25 0.0386,-0.9625 0.70305,-1.75 1.47656,-1.75 0.91407,0 1.22273,0.70014 0.88281,2 -0.54883,2.09873 1.25656,2.86116 1.9375,0.81836 0.22415,-0.67245 1.13921,-0.8927 2.12695,-0.51367 1.39103,0.53379 1.52175,1.05976 0.66211,2.66601 -1.26748,2.36827 -5.38826,2.37887 -7.52343,0.0195 -2.34153,-2.58736 -4.23099,-8.33422 -3.57422,-10.87304 0.27773,-1.0736 0.46506,-1.62958 0.73437,-1.73438 z m 159.76563,0.0703 c 0.23231,0.0465 0.27323,0.23782 0.0762,0.55664 -0.33602,0.54371 -1.0352,0.99024 -1.55274,0.99024 -1.43843,0 -1.12109,-0.71802 0.61133,-1.38281 0.22247,-0.0854 0.41305,-0.13866 0.57031,-0.16211 0.11798,-0.0176 0.21749,-0.0174 0.29493,-0.002 z m 191.38476,0.8711 c 1.21084,-0.075 1.43353,0.78732 2.17969,4.0957 1.07262,4.75586 -0.48922,4.61298 -1.85547,-0.16992 -1.04342,-3.65278 -1.0624,-3.66574 -0.77148,-0.5 0.33399,3.63446 -0.75038,4.2479 -2.32032,1.31445 -1.52676,-2.85279 -1.2831,-3.7662 1.17188,-4.4082 0.67923,-0.17762 1.19209,-0.30703 1.5957,-0.33203 z m 35.51172,0.12304 c -0.13028,-0.0113 -0.25791,0.0175 -0.375,0.0899 -0.46835,0.28945 -0.59962,1.18405 -0.29101,1.98828 0.30861,0.80423 0.94377,1.22501 1.4121,0.93555 0.46835,-0.28945 0.59963,-1.18405 0.29102,-1.98828 -0.23146,-0.60318 -0.64627,-0.99135 -1.03711,-1.0254 z m -326.56055,1.04883 c -0.27992,-0.0202 -0.92242,0.43018 -1.54296,1.10352 -0.70918,0.76953 -0.84783,1.40039 -0.3086,1.40039 1.03844,0 2.54041,-1.90334 1.94727,-2.4668 -0.0241,-0.0229 -0.0557,-0.0342 -0.0957,-0.0371 z m 84.25,0.53321 c -0.2978,0.01 -0.55728,0.24622 -0.8457,0.71289 -0.41694,0.67463 -3.39202,2.13391 -6.61328,3.24218 -6.42681,2.21115 -8.86588,2.55857 -6.54492,0.9336 1.92615,-1.34856 -2.15253,-0.28433 -6.5,1.69531 -2.30588,1.05 -2.42157,1.21131 -0.5,0.69922 2.80923,-0.74863 9.97109,-1.43879 14.5,-1.39648 1.90324,0.0178 2.53046,-0.26551 1.71484,-0.7754 -0.86082,-0.53815 0.0885,-1.21456 2.87305,-2.04882 3.16436,-0.94807 3.88034,-1.52591 2.99414,-2.41211 -0.4431,-0.44307 -0.78032,-0.65999 -1.07813,-0.65039 z m 200.36133,0.3164 c -0.15157,-0.0229 -0.25515,0.34222 -0.28515,1.07032 -0.0434,1.05416 0.19114,1.64479 0.52343,1.3125 0.33225,-0.3323 0.36895,-1.19415 0.0801,-1.91602 -0.11971,-0.29915 -0.22742,-0.45303 -0.31836,-0.4668 z m -319.98633,0.0195 c 0.27041,0.0886 0.68863,1.22245 0.9961,2.75977 0.83365,4.16825 0.0258,4.97614 -0.875,0.875 -0.37968,-1.72866 -0.48133,-3.35265 -0.22656,-3.60742 0.0318,-0.0319 0.0668,-0.04 0.10546,-0.0274 z m -4.23242,0.15821 c -0.10156,-0.0112 -0.21325,0.0157 -0.33008,0.0879 -0.4673,0.28881 -0.58987,0.94503 -0.27343,1.45703 0.80862,1.30838 1.12304,1.16078 1.12304,-0.52539 0,-0.60061 -0.21485,-0.98602 -0.51953,-1.01953 z m 61.91211,1.47656 c -0.58246,0 -1.05859,0.45 -1.05859,1 0,0.55 0.19886,1 0.4414,1 0.24254,0 0.71868,-0.45 1.0586,-1 0.33992,-0.55 0.14105,-1 -0.44141,-1 z m 40.85938,1.12305 c 0.34739,0.0143 0.64439,0.10534 0.81054,0.27148 0.33229,0.33229 -0.25834,0.56879 -1.3125,0.52539 -1.16495,-0.048 -1.40124,-0.28429 -0.60351,-0.60351 0.36093,-0.14446 0.75807,-0.20767 1.10547,-0.19336 z m 240.02343,2.87695 c 0.51754,0 1.21868,0.45 1.5586,1 0.33992,0.55 -0.0839,1 -0.94141,1 -0.85746,0 -1.55859,-0.45 -1.55859,-1 0,-0.55 0.42386,-1 0.9414,-1 z m -253.4414,1.19922 c -3.4036,0 -7.21672,1.44488 -5.5,2.08398 0.825,0.30713 2.175,0.80887 3,1.11524 0.825,0.30636 3.75,0.34591 6.5,0.0879 2.75,-0.25802 6.35,-0.52776 8,-0.59766 l 3,-0.12695 -3,-0.76172 c -4.81938,-1.22633 -7.71338,-1.15501 -6.89453,0.16992 0.49297,0.79765 0.16684,0.95675 -1.02344,0.5 -0.96021,-0.36847 -2.94654,-0.71473 -4.41406,-0.76953 l -2.66797,-0.10156 2.5,-0.79883 c 1.97958,-0.63397 2.08367,-0.80078 0.5,-0.80078 z m 289.19922,0.23242 c 0.34335,0.10331 0.37993,0.63123 -0.15821,1.50195 -0.36254,0.58659 -1.13777,1.06641 -1.72265,1.06641 -0.6631,0 -0.58758,-0.575 0.20117,-1.52539 0.68577,-0.8263 1.33633,-1.14628 1.67969,-1.04297 z m -306.78125,0.69141 c -0.3474,-0.0143 -0.74454,0.0489 -1.10547,0.19336 -0.79773,0.31922 -0.56144,0.55551 0.60351,0.60351 1.05416,0.0434 1.64479,-0.1931 1.3125,-0.52539 -0.16615,-0.16612 -0.46315,-0.25718 -0.81054,-0.27148 z m -65.54688,0.27343 c 0.64758,0.38188 3.17516,6.80278 9.27149,23.49414 1.88663,5.16546 3.22408,9.89046 2.97265,10.5 -0.31085,0.75361 -0.48145,0.72648 -0.53515,-0.084 -0.0434,-0.65552 -1.85711,-4.93052 -4.0293,-9.5 -3.74041,-7.86844 -8.71827,-23.47314 -7.78516,-24.40625 0.027,-0.027 0.0623,-0.0294 0.10547,-0.004 z m 329.02539,0.60352 c 0.90688,0 3.63863,1.8328 6.07032,4.07422 3.35401,3.09163 4.942,5.64206 6.58007,10.56445 1.18759,3.56871 1.91023,6.7382 1.60547,7.04297 -0.30477,0.30476 -0.85833,-0.73705 -1.23047,-2.31445 -1.72183,-7.29856 -4.56213,-11.92922 -9.57617,-15.61719 -2.84032,-2.08914 -4.36782,-3.75 -3.44922,-3.75 z m 34.36524,0.0742 c 0.2762,-0.0773 0.0103,0.49653 -0.73242,1.92578 -1.74217,3.35245 -2.0293,3.60476 -2.0293,1.78906 0,-0.84932 0.74901,-2.16312 1.66406,-2.91797 0.57069,-0.47077 0.93194,-0.75047 1.09766,-0.79687 z m 4.40039,0.0449 c 0.51066,-0.0938 0.83789,0.64263 0.83789,2.35547 0,1.4533 -0.3375,2.43463 -0.75,2.17969 -0.4125,-0.25494 -0.84083,0.50447 -0.95117,1.68945 -0.11035,1.18498 -0.7489,4.91514 -1.41993,8.28711 -1.38069,6.93806 -0.17638,11.7952 3.13868,12.66211 1.31909,0.34496 1.69359,1.09356 1.30078,2.5957 -0.30356,1.1608 -0.9497,2.11133 -1.43555,2.11133 -0.48585,0 -0.88281,0.48102 -0.88281,1.07031 0,0.58928 -0.675,1.74727 -1.5,2.57227 -1.16948,1.16947 -1.52823,1.20798 -1.63086,0.17773 -0.0724,-0.72679 -0.46395,0.25469 -0.86914,2.17969 -0.6451,3.06475 -0.75192,3.16492 -0.86719,0.80859 -0.0724,-1.48004 -0.48877,-2.9108 -0.92383,-3.17968 -0.43509,-0.26888 -0.61085,1.05498 -0.39062,2.9414 0.22022,1.88642 -0.0409,3.42969 -0.58008,3.42969 -0.89156,0 -0.38815,4.7501 1.23047,11.60742 0.42576,1.80374 0.1315,2.03873 -2.04297,1.62305 -1.81233,-0.34645 -2.38013,-0.95248 -1.98047,-2.10938 0.50885,-1.47297 0.44377,-1.47558 -0.69336,-0.0371 -0.68885,0.87139 -2.48945,1.89295 -4.00195,2.26954 l -2.75,0.68359 0,-8.93945 c 0,-7.20746 0.66367,-11.22923 3.42383,-20.76758 3.96422,-13.69925 6.41479,-19.89506 6.65625,-16.83008 0.0866,1.1 0.10416,2.3375 0.0391,2.75 -0.0651,0.4125 0.31538,0.75 0.8457,0.75 0.53033,0 1.78261,-2.77991 2.7832,-6.17774 1.20277,-4.08413 2.56296,-6.54683 3.41407,-6.70312 z m -294.16211,0.01 c -0.45313,0 -0.90625,0.0683 -1.25,0.20703 -0.6875,0.27741 -0.125,0.50586 1.25,0.50586 1.375,0 1.9375,-0.22845 1.25,-0.50586 -0.34375,-0.13871 -0.79688,-0.20703 -1.25,-0.20703 z m 263,2.87109 c 0.0516,-0.0516 0.45697,0.24916 1.25,0.87109 0.9625,0.75485 1.75,1.54235 1.75,1.75 0,0.82304 -0.82054,0.29466 -2.12696,-1.37109 -0.62193,-0.79303 -0.92466,-1.19838 -0.87304,-1.25 z m 35.09375,1.5 3.78515,9 c 4.71219,11.20297 6.10462,16.72061 6.625,26.25391 0.22489,4.12001 0.65428,7.7363 0.95313,8.03515 0.73893,0.73893 0.68467,6.25045 -0.0996,10.17188 -0.62796,3.13979 -0.74964,3.20435 -5.40625,2.875 -2.61997,-0.1853 -4.59146,-0.0582 -4.38086,0.28125 0.21061,0.33948 -1.69332,0.90198 -4.23242,1.25 -6.49711,0.89053 -8.5533,0.78859 -7.82813,-0.38477 0.34546,-0.55897 1.05837,-0.75064 1.58399,-0.42578 0.52563,0.32485 0.87197,0.22096 0.76953,-0.23242 -0.10245,-0.45338 0.36991,-2.17422 1.04883,-3.82422 0.67892,-1.65 1.72767,-5.1375 2.33203,-7.75 0.60436,-2.6125 1.62839,-4.75 2.27539,-4.75 0.64701,0 1.98978,-1.80611 2.98437,-4.01172 0.99459,-2.2056 2.00143,-3.81693 2.23633,-3.58203 0.2349,0.23489 -0.48458,2.48901 -1.59961,5.00977 -1.11503,2.52071 -1.70964,4.58398 -1.32031,4.58398 1.2244,0 4.34639,-8.25917 3.8457,-10.17383 -0.26289,-1.00531 -0.0708,-1.82617 0.42774,-1.82617 0.49851,0 0.90625,-0.7513 0.90625,-1.66797 0,-0.91666 0.24412,-1.42384 0.54101,-1.12695 0.55051,0.55051 -1.80069,12.85876 -3.0664,16.05468 -0.53193,1.34314 -0.31617,1.61632 0.9082,1.14649 0.88307,-0.33887 1.35708,-1.01936 1.05273,-1.51172 -0.3043,-0.49237 -0.0235,-0.89453 0.62305,-0.89453 0.71469,0 0.98783,-0.98004 0.69727,-2.5 -0.26285,-1.375 -0.17644,-2.5 0.19336,-2.5 0.3698,0 0.74794,-2.925 0.83984,-6.5 0.0947,-3.68386 -0.25618,-6.5 -0.81055,-6.5 -0.53799,0 -0.97851,-2.05525 -0.97851,-4.56641 0,-2.51116 -0.52832,-5.54866 -1.17383,-6.75 -0.64551,-1.20134 -1.49828,-3.53359 -1.89648,-5.18359 -0.60813,-2.51993 -0.76033,-2.11988 -0.95118,2.5 -0.12496,3.025 -0.28471,6.81037 -0.35351,8.41211 -0.15286,3.557 -2.09396,4.44718 -3.5918,1.64844 -1.40868,-2.63214 -0.96213,-5.89843 1.23438,-9.03321 0.99789,-1.42417 1.75239,-4.39215 1.77929,-7 l 0.0469,-4.52734 z m -375.5586,0.01 c -0.0318,-0.009 -0.0639,-0.008 -0.0976,0.002 -0.22483,0.0688 -0.48407,0.56308 -0.70508,1.4082 -0.43497,1.66335 -0.30652,2.05262 0.43555,1.31055 0.58111,-0.5811 0.85962,-1.64575 0.61914,-2.36719 -0.0702,-0.21064 -0.1566,-0.32624 -0.25196,-0.35352 z m 332.50977,1.08204 c -0.17121,0.19232 0.48056,1.88363 1.60938,4.11328 1.29003,2.54817 2.39909,5.3436 2.46289,6.21289 0.0982,1.33794 0.18374,1.32386 0.55859,-0.0937 0.44272,-1.67429 -2.88279,-9.21764 -4.50586,-10.2207 -0.0591,-0.0365 -0.10054,-0.0392 -0.125,-0.0117 z m 4.62891,2.49804 c -0.064,0.002 -0.1354,0.0377 -0.20899,0.11133 -0.64233,0.64234 3.48883,12.07182 4.63672,12.82813 0.44239,0.29148 1.1139,2.46634 1.49219,4.83203 0.49354,3.08644 0.95597,3.92398 1.63476,2.96875 0.67351,-0.94781 0.80253,-0.68304 0.45118,0.91992 -0.27142,1.23826 -0.1334,2.02977 0.30664,1.75781 0.44003,-0.27196 1.12977,0.73935 1.53125,2.24805 0.40148,1.5087 0.91788,2.23534 1.14843,1.61523 0.23056,-0.62011 -0.65425,-3.54511 -1.96679,-6.5 -3.16682,-7.12942 -4.44265,-10.70309 -5.21875,-14.63086 -0.39282,-1.98807 -1.06831,-2.99637 -1.73243,-2.58593 -0.70108,0.4333 -0.85378,0.0622 -0.42968,-1.04297 0.39113,-1.01923 0.2571,-1.46837 -0.33008,-1.10547 -0.5437,0.33602 -0.98828,0.0589 -0.98828,-0.61524 0,-0.50559 -0.13426,-0.80596 -0.32617,-0.80078 z m 23.42187,2.15235 c 0.61249,0.0518 0.79988,0.26658 0.39258,0.5625 -0.54306,0.39455 -1.27064,1.07018 -1.61524,1.5 -0.34456,0.42982 -0.85615,0.17763 -1.13867,-0.5586 -0.32112,-0.83683 0.28327,-1.39785 1.61328,-1.49804 0.29254,-0.022 0.54389,-0.0231 0.74805,-0.006 z m -7.9043,0.88672 c 0.17184,0.0503 0.48961,0.4351 0.93164,1.19531 0.58414,1.00375 0.84927,2.0355 0.5918,2.29297 -0.25747,0.25747 -0.74882,-0.26255 -1.0918,-1.15625 -0.60311,-1.57168 -0.71803,-2.41585 -0.43164,-2.33203 z m -21.76171,1.66601 c -0.12935,0.0698 -0.22163,0.67383 -0.23438,1.70508 -0.0204,1.65 0.18701,2.44461 0.46094,1.76758 0.27397,-0.67703 0.29065,-2.02703 0.0371,-3 -0.0951,-0.36487 -0.18607,-0.51452 -0.26367,-0.47266 z m 3.03711,0.66602 c -0.18089,-0.0674 -0.3086,0.50781 -0.3086,1.53906 0,1.375 0.2265,1.9375 0.50391,1.25 0.27741,-0.6875 0.27741,-1.8125 0,-2.5 -0.0694,-0.17188 -0.13503,-0.2666 -0.19531,-0.28906 z m -338.2168,2.55273 c -1.49555,0.0131 -1.5319,0.1579 -0.25,0.98633 1.88721,1.21961 2,1.21961 2,0 0,-0.55 -0.7875,-0.99433 -1.75,-0.98633 z m 355.70312,2.98633 c -0.65583,0 -0.89849,0.69586 -0.55468,1.5918 0.33619,0.8761 0.88256,2.6761 1.21484,4 0.73477,2.92753 1.00141,2.99249 1.67773,0.40625 0.33295,-1.27315 0.13026,-1.75926 -0.55468,-1.33594 -0.68102,0.42089 -0.8414,0.0545 -0.4375,-0.99805 0.3512,-0.91522 0.17652,-1.66406 -0.38868,-1.66406 -0.5652,0 -0.75007,-0.45 -0.41015,-1 0.33992,-0.55 0.0944,-1 -0.54688,-1 z m 2.41797,0.10352 c -0.22707,-0.0804 -0.14581,0.2987 0.19336,1.18945 0.37553,0.98622 0.9343,1.54031 1.24219,1.23242 0.30789,-0.30789 0.002,-1.11463 -0.68164,-1.79297 -0.37036,-0.3676 -0.61766,-0.58066 -0.75391,-0.6289 z m -381.3125,2.89648 c -0.58246,0 -1.05859,0.45 -1.05859,1 0,0.55 0.19886,1 0.4414,1 0.24254,0 0.71868,-0.45 1.0586,-1 0.33992,-0.55 0.14105,-1 -0.44141,-1 z m 8.88281,2 c -0.58246,0 -0.78132,0.45 -0.4414,1 0.33992,0.55 0.81605,1 1.05859,1 0.24254,0 0.44141,-0.45 0.44141,-1 0,-0.55 -0.47614,-1 -1.0586,-1 z m 21.75,0.0137 c -0.71561,0.009 -0.59269,0.40387 0.3086,0.98633 1.92112,1.24153 2.26731,1.24153 1.5,0 -0.33992,-0.55 -1.15356,-0.99433 -1.8086,-0.98633 z m 336.79493,0.16602 c -0.21077,0.21076 0.10148,2.29722 0.69531,4.63672 0.59383,2.33951 1.27638,4.05955 1.51562,3.82031 0.23923,-0.23923 -0.075,-2.32568 -0.69726,-4.63672 -0.6223,-2.31104 -1.3029,-4.03108 -1.51367,-3.82031 z m 9.89453,1.54492 c -0.17493,0.0332 -0.34315,0.1881 -0.51367,0.45703 -1.2275,1.93583 -1.02134,3.57776 0.22851,1.81836 0.8118,-1.14278 0.92077,-0.78556 0.45508,1.5 -0.45049,2.21096 -0.34379,2.60548 0.4043,1.5 0.83756,-1.23766 1.01669,-1.25296 1.02929,-0.084 0.008,0.77904 0.30136,1.13027 0.65039,0.78124 0.34903,-0.34901 0.0577,-2.02962 -0.64843,-3.73437 -0.58238,-1.40598 -1.02755,-2.12303 -1.42774,-2.23047 -0.06,-0.0161 -0.11942,-0.0189 -0.17773,-0.008 z m -380.68946,1.28906 c -0.71561,0.009 -0.59269,0.40387 0.3086,0.98633 1.92112,1.24153 2.26731,1.24153 1.5,0 -0.33992,-0.55 -1.15356,-0.99433 -1.8086,-0.98633 z m 6.9336,0.34961 c -0.38923,-0.0583 -1.0837,0.67676 -1.66016,1.80078 -1.14512,2.23286 -1.11837,2.2596 0.60938,0.60938 0.99401,-0.94941 1.53246,-2.00074 1.19726,-2.33594 -0.0419,-0.0419 -0.0909,-0.0659 -0.14648,-0.0742 z m 9.91015,0.0332 c -0.30475,0.0724 -0.68905,0.56893 -0.9707,1.3086 -0.54268,1.4252 -0.42707,1.5408 0.56055,0.56054 0.68342,-0.67834 0.98953,-1.48507 0.68164,-1.79296 -0.077,-0.077 -0.1699,-0.10032 -0.27149,-0.0762 z m -5.75585,0.1211 c -0.34143,-0.011 -1.04061,0.71641 -1.67774,1.77734 -1.26492,2.10631 -1.24538,2.12781 0.47656,0.47852 0.99123,-0.94941 1.5873,-1.942 1.32422,-2.20508 -0.0329,-0.0329 -0.0743,-0.0492 -0.12304,-0.0508 z m 388.9082,0.48242 c -0.58778,0 -0.19653,0.65929 0.87109,1.4668 2.50847,1.89731 2.99861,1.90952 1.44141,0.0332 -0.68469,-0.825 -1.72473,-1.5 -2.3125,-1.5 z m -357.32227,0.3457 c 0.0909,0.0138 0.19865,0.16765 0.31836,0.4668 0.28892,0.72187 0.25221,1.58373 -0.0801,1.91602 -0.3323,0.33226 -0.56683,-0.25834 -0.52343,-1.3125 0.03,-0.72812 0.13358,-1.09327 0.28515,-1.07032 z m -30,1.01758 c -0.11681,0.0142 -0.25456,0.0664 -0.40625,0.16016 -0.73241,0.45265 -0.52505,1.29695 0.63086,2.57422 2.05359,2.2692 2.05522,2.26979 2.72461,0.52539 0.32661,-0.85113 -0.10881,-1.3278 -1.14258,-1.25 -0.91901,0.0691 -1.54761,-0.46889 -1.39648,-1.19727 0.11473,-0.55291 -0.0597,-0.85501 -0.41016,-0.8125 z m -11.30664,1.63672 c -0.58246,0 -1.05859,0.45 -1.05859,1 0,0.55 0.19886,1 0.4414,1 0.24254,0 0.71868,-0.45 1.0586,-1 0.33992,-0.55 0.14105,-1 -0.44141,-1 z m 42.26172,1.35547 c 0.50852,-0.15275 1.205,1.63874 2.18555,5.01172 0.89275,3.07095 3.79791,10.96337 6.45703,17.53906 3.52145,8.70805 4.48863,12.09034 3.55859,12.44727 -0.7023,0.26949 -1.87356,-0.0371 -2.60156,-0.68165 -1.07634,-0.95293 -1.10386,-0.87988 -0.15039,0.39454 0.94887,1.26829 0.50646,2.57697 -2.31641,6.86328 -4.17264,6.33583 -10.63833,12.38917 -11.58984,10.84961 -0.39082,-0.63238 -0.85955,-0.29637 -1.14648,0.82422 -0.40667,1.58816 -0.50241,1.61869 -0.59961,0.18164 -0.0638,-0.94315 0.89531,-2.25488 2.13281,-2.91407 4.98881,-2.65743 5.09851,-3.28654 3.0332,-17.37109 -0.32255,-2.2 -0.49457,-8.725 -0.38281,-14.5 0.24642,-12.73354 0.57239,-18.38996 1.41992,-18.64453 z m -29.98047,2.99219 c -0.80221,0.0692 -0.74566,0.40428 -0.0273,1.22265 1.50197,1.71115 2.3457,1.76343 2.95312,0.17969 0.29081,-0.75822 -0.42926,-1.30553 -1.83008,-1.39063 -0.46586,-0.0283 -0.8283,-0.0348 -1.0957,-0.0117 z m -14.3418,0.65039 c -0.0695,-0.0319 -0.46824,0.26308 -1.23632,0.86523 -0.95644,0.74982 -1.49282,1.76232 -1.19141,2.25 0.3014,0.48768 0.82205,0.88672 1.15625,0.88672 0.33425,0 0.31112,-0.29631 -0.0508,-0.6582 -0.36189,-0.3619 -0.0988,-1.3744 0.58398,-2.25 0.54827,-0.70317 0.80775,-1.06183 0.73828,-1.09375 z m 9.50196,0.0312 c -0.55,0 -0.325,0.43754 0.5,0.9707 0.825,0.53316 1.95,0.96875 2.5,0.96875 0.55,0 0.325,-0.43559 -0.5,-0.96875 -0.825,-0.53316 -1.95,-0.9707 -2.5,-0.9707 z m -4.41406,1.23046 c -0.0402,0.0604 0.42345,0.4369 1.35546,1.1836 2.04026,1.63459 2.5586,1.85702 2.5586,1.0918 0,-0.25565 -1.0125,-0.95699 -2.25,-1.55664 -1.08032,-0.52352 -1.62392,-0.77913 -1.66406,-0.71876 z m 385.60156,1.74024 c -0.58778,0 -0.19653,0.65929 0.87109,1.4668 2.50847,1.89731 2.99861,1.90952 1.44141,0.0332 -0.68469,-0.825 -1.72473,-1.5 -2.3125,-1.5 z m -357.62891,4 c -0.58246,0 -1.05859,0.45 -1.05859,1 0,0.55 0.19886,1 0.4414,1 0.24254,0 0.71868,-0.45 1.0586,-1 0.33992,-0.55 0.14105,-1 -0.44141,-1 z m -21.50781,1.01367 c -0.5775,0.008 -0.37578,0.45132 0.44922,0.98242 1.32159,0.85079 1.29775,1.32442 -0.20313,3.98438 -2.1604,3.82882 -0.80558,3.99676 1.44922,0.17969 1.68757,-2.85682 0.92104,-5.18459 -1.69531,-5.14649 z m -7.05078,0.0156 c -0.55,0 -0.325,0.43754 0.5,0.9707 0.825,0.53316 1.95,0.96875 2.5,0.96875 0.55,0 0.325,-0.43559 -0.5,-0.96875 -0.825,-0.53316 -1.95,-0.9707 -2.5,-0.9707 z m 26,1.85156 2.36133,2.05859 c 2.30373,2.00958 3.13867,2.45467 3.13867,1.67383 0,-0.21174 -1.2375,-1.13769 -2.75,-2.05859 l -2.75,-1.67383 z m 362.08398,1.57226 c -0.23176,0.0465 -0.27323,0.23781 -0.0762,0.55664 0.33602,0.5437 1.03324,0.99024 1.55078,0.99024 1.43843,0 1.12305,-0.71802 -0.60937,-1.38281 -0.22247,-0.0854 -0.41497,-0.13866 -0.57227,-0.16211 -0.11797,-0.0176 -0.21571,-0.0175 -0.29297,-0.002 z m -376.17773,0.0508 c -0.42667,0.0192 -0.74463,0.23327 -1,0.64648 -0.39336,0.63649 -0.28741,0.89205 0.23633,0.56836 0.52374,-0.32369 1.60751,-0.17326 2.40625,0.33203 1.67107,1.05713 1.95117,1.12679 1.95117,0.48438 0,-0.25565 -0.87283,-0.93305 -1.93946,-1.50391 -0.69246,-0.3706 -1.22763,-0.54652 -1.65429,-0.52734 z m -35.71485,0.49609 c -0.20911,0 -1.19591,0.9 -2.1914,2 -0.99549,1.1 -1.30531,2 -0.68946,2 0.6159,0 1.60076,-0.9 2.18946,-2 0.5887,-1.1 0.90051,-2 0.6914,-2 z m 408.53907,0 c -0.5585,0 -1.27521,0.675 -1.5918,1.5 -0.31653,0.825 -0.41891,1.5 -0.22852,1.5 0.19039,0 0.90516,-0.675 1.58985,-1.5 0.71755,-0.86459 0.81578,-1.5 0.23047,-1.5 z m -393.95899,0.4043 c -0.0949,0.0187 0.21882,0.27436 0.90235,0.77148 1.56376,1.1373 1.56376,1.29921 0,2.48828 -0.92004,0.6996 -1.16704,1.28524 -0.54688,1.30274 0.62015,0.0175 1.66356,-0.6118 2.31641,-1.39844 0.95573,-1.15158 0.73467,-1.64179 -1.12891,-2.51953 -0.94576,-0.44545 -1.44808,-0.66323 -1.54297,-0.64453 z m 5.1211,1.5957 c -0.21615,0 -0.39258,0.675 -0.39258,1.5 0,0.825 0.43601,1.5 0.96875,1.5 0.53273,0 0.70916,-0.675 0.39258,-1.5 -0.31659,-0.825 -0.75259,-1.5 -0.96875,-1.5 z m 13.94531,0.38086 c -0.0901,-0.002 -0.2079,0.0374 -0.34961,0.125 -0.5437,0.33602 -0.98828,1.03519 -0.98828,1.55273 0,1.43843 0.71607,1.12114 1.38086,-0.61133 0.25612,-0.6674 0.22731,-1.05958 -0.043,-1.0664 z m 35.19726,1.01562 c -0.30475,0.0724 -0.68905,0.57089 -0.9707,1.31055 -0.54268,1.4252 -0.42707,1.53885 0.56055,0.55859 0.68342,-0.67834 0.98953,-1.48507 0.68164,-1.79296 -0.077,-0.077 -0.1699,-0.10032 -0.27149,-0.0762 z m -19.03515,1.63282 c -0.55,0 -0.325,0.43754 0.5,0.9707 0.825,0.53316 1.95,0.96875 2.5,0.96875 0.55,0 0.325,-0.43559 -0.5,-0.96875 -0.825,-0.53316 -1.95,-0.9707 -2.5,-0.9707 z m 16.5,1.9707 c -0.0516,0.0516 0.25115,0.45697 0.87304,1.25 0.75485,0.9625 1.54234,1.75 1.75,1.75 0.82303,0 0.29271,-0.82254 -1.37304,-2.12891 -0.79303,-0.62193 -1.19839,-0.92271 -1.25,-0.87109 z m 361.55859,1 c -0.24254,0 -0.71867,0.45 -1.05859,1 -0.33992,0.55 -0.14106,1 0.4414,1 0.58246,0 1.0586,-0.45 1.0586,-1 0,-0.55 -0.19887,-1 -0.44141,-1 z m -373.38476,0.30859 c -0.0823,0.0376 0.28574,0.35732 1.05273,0.97852 1.50168,1.21621 1.54418,1.64307 0.33203,3.30078 -0.9821,1.3431 -1.08665,2.27481 -0.35351,3.1582 0.57187,0.68905 1.29952,1.25391 1.61718,1.25391 0.31765,0 0.0675,-0.51065 -0.55664,-1.13477 -0.84634,-0.84634 -0.75369,-1.71901 0.36719,-3.42968 1.39842,-2.13427 1.34258,-2.37142 -0.81445,-3.41993 -1.03039,-0.50085 -1.56224,-0.74462 -1.64453,-0.70703 z m -18.25586,0.69141 c 3.36888,0 5.08203,1.15276 5.08203,3.41992 0,2.51068 -5.20062,8.00466 -6.47852,6.84375 -0.46254,-0.4202 -0.53645,-0.2319 -0.16406,0.41797 1.18141,2.06176 -3.49369,4.31836 -8.94531,4.31836 -3.68847,0 -5.88754,0.58571 -7.77735,2.07226 -3.28385,2.58308 -3.27481,2.24619 0.20118,-8.11914 l 2.83398,-8.45312 4.41602,-0.15039 c 2.42809,-0.0818 3.39605,0.0636 2.15039,0.32226 -1.24566,0.25864 -2.00703,0.88777 -1.69141,1.39844 0.31561,0.51068 -0.0164,0.97495 -0.73633,1.03125 -0.71996,0.0563 0.25259,0.46918 2.16016,0.91797 1.90757,0.44875 4.20003,0.42466 5.0957,-0.0547 1.02392,-0.54798 2.15094,-0.42448 3.0332,0.33203 1.16577,0.99961 1.19084,0.95661 0.15235,-0.24804 -1.8387,-2.13289 -1.52263,-4.04883 0.66797,-4.04883 z m 379.41992,0.0586 c 0.20034,-0.006 0.40487,0.0217 0.60937,0.0899 0.78035,0.26011 0.7013,0.94934 -0.25976,2.26367 -1.02623,1.40346 -1.57803,1.57213 -2.14649,0.65234 -0.78145,-1.26442 0.39451,-2.96564 1.79688,-3.00586 z m -386.41992,2.06446 c 0.34739,0.0143 0.6444,0.10534 0.81054,0.27148 0.33229,0.33229 -0.25834,0.56879 -1.3125,0.52539 -1.16495,-0.048 -1.40124,-0.28429 -0.60351,-0.60351 0.36094,-0.14446 0.75807,-0.20767 1.10547,-0.19336 z m 36.16797,0.13671 c -0.0402,0.0604 0.42345,0.4369 1.35546,1.1836 2.04026,1.63459 2.5586,1.85702 2.5586,1.0918 0,-0.25565 -1.0125,-0.95699 -2.25,-1.55664 -1.08032,-0.52352 -1.62392,-0.77913 -1.66406,-0.71876 z m -14.39454,0.75391 c -0.71561,0.009 -0.59269,0.40387 0.3086,0.98633 1.92112,1.24153 2.26731,1.24153 1.5,0 -0.33992,-0.55 -1.15356,-0.99433 -1.8086,-0.98633 z m 0.36719,2.98633 c -0.58246,0 -1.05859,0.45 -1.05859,1 0,0.55 0.19886,1 0.4414,1 0.24254,0 0.71868,-0.45 1.0586,-1 0.33992,-0.55 0.14105,-1 -0.44141,-1 z m 384.85938,0.42773 c 0.55357,0.0389 0.92884,0.29757 1.23828,0.78321 0.576,0.90399 -0.29582,1.7735 -2.91797,2.91406 -2.056,0.89431 -4.97578,1.91586 -6.48828,2.26953 -2.44239,0.57112 -2.75,0.36033 -2.75,-1.87695 0,-2.11986 0.46575,-2.51758 2.93554,-2.51758 1.6142,0 4.16335,-0.46774 5.66602,-1.03906 1.02955,-0.39144 1.76283,-0.57216 2.31641,-0.53321 z m -21.62891,0.88086 c 0.20823,-0.0531 0.54361,0.1361 1.05274,0.5586 0.7381,0.61257 1.73553,0.78077 2.21679,0.37304 0.48126,-0.40772 0.27382,0.0473 -0.46289,1.00977 -0.73671,0.9625 -1.43479,1.75 -1.55078,1.75 -0.68969,0 -1.54492,-1.54336 -1.54492,-2.78906 0,-0.55224 0.0808,-0.84928 0.28906,-0.90235 z m -10.22266,0.69141 c 1.6354,0 4.9336,1.96395 4.9336,2.9375 0,0.47684 -1.35,1.33691 -3,1.91211 -2.8914,1.00794 -3,0.93894 -3,-1.90235 0,-1.62139 0.48024,-2.94726 1.0664,-2.94726 z m 17.2793,2.10352 c 0.066,0.005 0.11977,0.028 0.1582,0.0664 0.30744,0.30744 -0.69299,1.34864 -2.22265,2.31445 l -2.78125,1.75586 2.22265,-2.31445 c 1.06945,-1.11409 2.16083,-1.85958 2.62305,-1.82226 z m 6.46094,4.9121 c 0.43008,-0.023 0.90229,0.021 1.41016,0.14844 0.86621,0.2174 1.14955,1.25515 0.80859,2.96094 -0.44853,2.24398 -0.85205,2.50174 -2.77539,1.78125 -3.39725,-1.27264 -2.45394,-4.72943 0.55664,-4.89063 z m -6.33984,0.98438 c 0.32105,0 1.0065,1.11106 1.52343,2.4707 0.52556,1.38233 2.05689,2.75355 3.47461,3.10938 1.39445,0.34998 2.53516,1.08554 2.53516,1.63476 0,0.54922 -0.69721,0.7299 -1.55078,0.40235 -0.85356,-0.32754 -1.29968,-0.18624 -0.99024,0.31445 0.30944,0.50069 -1.97101,2.07222 -5.06836,3.49023 -3.09734,1.41801 -5.8172,2.57813 -6.04297,2.57813 -0.22572,0 -0.30498,-1.54608 -0.17773,-3.43555 0.12906,-1.9164 0.66012,-3.17036 1.20117,-2.83593 0.55625,0.34377 0.70097,-0.0972 0.3418,-1.03321 -0.34444,-0.89761 -0.12463,-1.94077 0.48633,-2.31836 0.73099,-0.45178 0.83173,-0.20744 0.29492,0.7168 -0.44867,0.77248 0.36771,0.32718 1.81445,-0.99023 1.44674,-1.31746 2.39207,-2.77996 2.10156,-3.25 -0.29048,-0.47006 -0.26442,-0.85352 0.0566,-0.85352 z m -1.75586,0.30664 c 0.22143,0.0557 0.28906,0.40591 0.28906,1.07031 0,0.89234 -0.675,1.62305 -1.5,1.62305 -0.825,0 -1.5,-0.17125 -1.5,-0.37891 0,-0.20765 0.675,-0.9364 1.5,-1.62109 0.61425,-0.50979 0.9895,-0.7491 1.21094,-0.69336 z m -5.19922,0.53906 c 0.0547,0.0315 0.11485,0.16367 0.17773,0.4043 0.25152,0.9625 0.25152,2.5375 0,3.5 -0.25153,0.9625 -0.45703,0.175 -0.45703,-1.75 0,-1.44375 0.1153,-2.24863 0.2793,-2.1543 z m -355.65235,1.64063 c 0.68081,1.5e-4 1.14694,0.11959 1.38672,0.35937 1.48019,1.48019 0.28072,2.6602 -4.21094,4.14258 -2.23545,0.73776 -4.5624,1.94141 -5.17187,2.67578 -2.12723,2.56316 -3.79229,1.41377 -3.11133,-2.14844 0.37613,-1.96759 1.53052,-2.74648 5.99024,-4.04296 2.25372,-0.65518 3.9825,-0.98658 5.11718,-0.98633 z m -35.31445,0.63867 c 0.21044,-10e-4 0.41144,0.0258 0.5918,0.0859 0.74895,0.24965 0.29556,0.70303 -1.05664,1.05664 -1.66335,0.43497 -2.05262,0.30457 -1.31055,-0.4375 0.43582,-0.43584 1.14406,-0.70091 1.77539,-0.70508 z m -6.10547,2.18555 c 1.60358,0.0742 4.08769,0.8291 4.97461,1.77539 0.82372,0.87821 0.54162,0.87755 -1.16406,0 -1.2375,-0.63667 -2.25,-0.76428 -2.25,-0.28321 0,1.33289 4.75693,3.21119 7.79687,3.07813 l 2.70313,-0.11914 -3,-0.76172 c -2.93751,-0.74747 -2.94587,-0.76695 -0.37305,-0.88281 1.44516,-0.0651 3.18836,0.55781 3.87305,1.38281 1.04526,1.25946 0.86507,1.51591 -1.12696,1.59961 l -2.37304,0.0996 2.5,0.80078 c 2.15955,0.69161 2.22764,0.83099 0.5,1.02734 -1.1,0.12502 -2.9,0.32223 -4,0.4375 -4.19998,0.44011 -10.5,-2.35611 -10.5,-4.66015 0,-0.52258 1.18559,-0.0188 2.63476,1.12109 1.44917,1.13992 3.58667,2.04467 4.75,2.00977 1.93202,-0.0579 1.90149,-0.14912 -0.36328,-1.05274 -2.85903,-1.14071 -6.02148,-3.79714 -6.02148,-5.05859 0,-0.29399 0.31683,-0.45236 0.8125,-0.50196 0.18587,-0.0186 0.39787,-0.0223 0.62695,-0.0117 z"
       id="path9204"
       inkscape:connector-curvature="0" />
  </g>
</svg>
